<svg width="121" height="121" viewBox="0 0 121 121" fill="none" xmlns="http://www.w3.org/2000/svg">
<rect width="120" height="120" transform="translate(0.5 0.5)" fill="#F2F4F7"/>
<g filter="url(#filter0_d_7206_54534)">
<g filter="url(#filter1_i_7206_54534)">
<path d="M13.9763 46.5781C13.9792 46.5276 13.9822 46.4798 13.9856 46.4294C14.9459 32.2795 20.7357 27.9158 33.1822 26.5958C45.6513 25.2733 49.7972 25.7943 60.3438 25.7943C70.8905 25.7943 75.1493 26.3603 87.9933 27.4312C100.563 28.4793 106.576 34.442 106.827 44.7496C106.838 45.2012 106.85 45.6536 106.88 46.1044C107.031 48.3636 107.5 55.766 107.5 60.0581C107.5 64.1263 107.078 69.7143 106.906 71.8233C106.86 72.3936 106.84 72.9628 106.819 73.5347C106.444 83.8272 99.3408 91.4423 89.8247 92.0958C80.0456 92.7675 70.8905 92.869 60.3438 92.869C49.7972 92.869 43.5594 92.1974 32.1261 91.3453C20.9088 90.5093 14.2356 83.6665 13.9876 73.2788C13.978 72.8782 13.9682 72.4788 13.9449 72.0788C13.8338 70.1678 13.5 64.0725 13.5 59.8132C13.5 54.9826 13.9294 47.3928 13.9763 46.5781Z" fill="url(#paint0_linear_7206_54534)"/>
</g>
<g filter="url(#filter2_ii_7206_54534)">
<path d="M14.6967 46.4574C14.6996 46.4071 14.7026 46.3591 14.7061 46.3088C15.647 32.4166 21.3191 28.1323 33.5118 26.8362C45.7271 25.5378 49.7887 26.0493 60.1207 26.0493C70.4527 26.0493 74.6248 26.6051 87.2074 27.6565C99.517 28.6852 105.407 34.536 105.657 44.65C105.668 45.1006 105.681 45.5513 105.711 46.0011C105.859 48.2312 106.317 55.4837 106.317 59.6915C106.317 63.6771 105.906 69.1484 105.737 71.2295C105.69 71.7987 105.671 72.3666 105.65 72.9372C105.276 83.0361 98.3197 90.5066 89.0015 91.148C79.4215 91.8075 70.4527 91.9072 60.1207 91.9072C49.7887 91.9072 43.6778 91.2478 32.4773 90.4112C21.4916 89.5906 14.9549 82.8758 14.7081 72.6819C14.6985 72.2822 14.6887 71.884 14.6656 71.4848C14.5562 69.5981 14.2302 63.6262 14.2302 59.4511C14.2302 54.7109 14.6504 47.2646 14.6967 46.4574Z" fill="url(#paint1_linear_7206_54534)"/>
</g>
<g filter="url(#filter3_ii_7206_54534)">
<path d="M16.4293 47.3913C16.4323 47.3402 16.4354 47.2906 16.4389 47.2395C17.3497 33.9925 22.8343 29.9069 34.6224 28.6708C46.4337 27.4323 50.361 27.9202 60.3513 27.9202C70.3416 27.9202 74.3757 28.4503 86.5422 29.4532C98.4282 30.433 104.124 35.9995 104.381 45.6217C104.393 46.0785 104.406 46.5334 104.436 46.9894C104.582 49.1606 105.02 56.0194 105.02 60.0088C105.02 63.7775 104.629 68.9387 104.463 70.9618C104.416 71.5386 104.395 72.1155 104.372 72.6938C103.99 82.3005 97.2711 89.402 88.277 90.0128C79.0138 90.6418 70.3416 90.7369 60.3513 90.7369C50.361 90.7369 44.4522 90.1079 33.6221 89.3099C23.0128 88.5282 16.6948 82.1383 16.4415 72.4352C16.431 72.03 16.4211 71.6266 16.3974 71.2219C16.2896 69.3839 15.9785 63.7359 15.9785 59.7795C15.9785 55.2686 16.3829 48.1883 16.4293 47.3913Z" fill="#76A1CB"/>
</g>
<g filter="url(#filter4_d_7206_54534)">
<path fill-rule="evenodd" clip-rule="evenodd" d="M59.793 34.1563C50.8826 34.1563 45.6418 34.322 35.109 35.3328C32.4831 35.5847 30.4447 35.8734 28.842 36.3237C27.2463 36.772 26.1223 37.37 25.2934 38.2151C24.4651 39.0596 23.8824 40.2011 23.4582 41.8263C23.032 43.4591 22.7754 45.5413 22.5753 48.235C22.5712 48.2914 22.5673 48.3472 22.5637 48.4032C22.5153 49.1683 22.1638 54.8468 22.1638 58.4699C22.1638 61.5514 22.4182 65.9096 22.5242 67.5891C22.5542 68.0652 22.5691 68.538 22.5736 69.0112C22.6113 72.9329 22.9997 76.1543 24.4495 78.4721C25.8641 80.7337 28.3695 82.2492 32.9482 82.5579C35.1247 82.7047 37.2281 82.8584 39.2822 83.0084C46.3805 83.5269 52.8901 84.0024 59.793 84.0024C62.7004 84.0024 65.9404 84.0564 69.2729 84.112C76.2246 84.2278 83.5792 84.3503 89.159 84.0036C92.9487 83.7681 95.2084 82.1878 96.5735 79.7941C97.969 77.3471 98.468 73.9834 98.5368 70.129C98.5488 69.4556 98.5788 68.7787 98.6383 68.1011C98.7975 66.2866 99.1084 62.3705 99.1084 59.4816V48.2794C99.1084 48.2793 99.1084 48.279 99.7059 48.279C100.303 48.279 100.303 48.2791 100.303 48.2791V59.4816C100.303 62.4305 99.9878 66.3953 99.8286 68.209C99.7722 68.8517 99.7432 69.4991 99.7316 70.151C99.662 74.0534 99.1616 77.6778 97.6074 80.4031C96.0227 83.1817 93.3821 84.9578 89.2319 85.2157C83.6064 85.5653 76.1619 85.4415 69.1831 85.3255C65.8661 85.2703 62.6543 85.2169 59.793 85.2169C52.8431 85.2169 46.2779 84.7372 39.171 84.218C37.1227 84.0683 35.0295 83.9154 32.869 83.7697C28.0465 83.4445 25.1234 81.8134 23.4409 79.1236C21.7936 76.4899 21.4164 72.9549 21.3787 69.023C21.3743 68.5678 21.36 68.1172 21.3316 67.6668C21.2258 65.9898 20.9688 61.5953 20.9688 58.4699C20.9688 54.8011 21.3232 49.0832 21.3712 48.3252C21.3751 48.2643 21.3792 48.204 21.3837 48.1436C21.5848 45.4359 21.8474 43.261 22.3031 41.5149C22.7609 39.7612 23.423 38.4019 24.4471 37.3578C25.4706 36.3142 26.8067 35.6356 28.5236 35.1532C30.2335 34.6728 32.3601 34.3767 34.9966 34.1237C45.5714 33.1089 50.85 32.9419 59.793 32.9419C68.7378 32.9419 77.0346 33.3017 87.9166 34.1227C93.4041 34.5367 96.5926 35.8936 98.3508 38.3761C100.079 40.816 100.303 44.1982 100.303 48.2791L99.7059 48.279L99.1084 48.2794C99.1084 44.1461 98.8519 41.1625 97.3809 39.0856C95.9401 37.0513 93.2119 35.7399 87.8282 35.3338C76.9679 34.5145 68.7015 34.1563 59.793 34.1563Z" fill="white" fill-opacity="0.8" shape-rendering="crispEdges"/>
</g>
<g filter="url(#filter5_f_7206_54534)">
<path d="M91.3789 89.8608C92.8834 89.4571 97.4711 87.7395 99.1448 85.9779C101.237 83.7758 104.21 79.9223 104.76 75.8486C104.904 74.8516 105.168 72.7985 105.105 72.3623C105.103 72.3517 105.101 72.3413 105.1 72.3311C105.102 72.3403 105.104 72.3507 105.105 72.3623C105.215 72.9856 105.235 74.3495 105.1 75.1343C104.927 76.132 104.446 79.9686 103.035 81.9984C101.625 84.0282 99.8014 87.6061 96.2922 88.7414C93.4849 89.6497 91.4602 90.0227 91.3789 89.8608Z" fill="white" fill-opacity="0.6"/>
</g>
<g filter="url(#filter6_f_7206_54534)">
<path d="M105.557 43.645C105.37 42.0985 103.913 37.6493 102.406 35.7433C100.522 33.3608 97.1274 29.8732 93.1724 28.7523C92.2057 28.4692 90.2106 27.9176 89.7699 27.918C89.7591 27.9184 89.7485 27.9188 89.7381 27.9193C89.7476 27.9184 89.7582 27.918 89.7699 27.918C90.4024 27.8975 91.7555 28.0706 92.5132 28.3155C93.4766 28.6269 97.2066 29.646 99.0166 31.3294C100.827 33.0127 103.874 35.3725 104.739 38.9579C105.381 41.6205 105.729 43.5874 105.557 43.645Z" fill="white" fill-opacity="0.6"/>
</g>
<g filter="url(#filter7_f_7206_54534)">
<path d="M22.5629 86.9042C20.4234 85.7521 17.3219 82.2452 16.5371 80.8996C16.4022 81.0206 17.5019 82.6882 19.147 84.8779C21.3623 87.8267 25.1206 89.0289 27.4796 89.7671C29.6232 90.4379 32.7097 90.6585 34.0561 90.7615C34.9857 90.8326 36.4275 90.7368 37.1246 90.7615C36.1538 90.5924 34.0315 90.3464 32.7176 90.1581C29.5337 89.7017 25.2374 88.3443 22.5629 86.9042Z" fill="#A0A4B2" fill-opacity="0.8"/>
</g>
<path fill-rule="evenodd" clip-rule="evenodd" d="M77.7991 67.5355C77.8852 67.3629 78.1325 67.3628 78.2176 67.5372L78.2205 67.5431L78.4694 68.1168L79.0981 68.1811C79.289 68.2095 79.3652 68.4448 79.2263 68.5796L79.2219 68.5839L78.7384 69.0154L78.8848 69.6108L78.8858 69.6162C78.9179 69.8068 78.7174 69.9517 78.5465 69.8613L78.5393 69.8575L78.0079 69.5371L77.4551 69.8581C77.2841 69.9467 77.0844 69.8017 77.1174 69.611L77.1186 69.6042L77.2556 68.9871L76.7834 68.5722C76.6453 68.4367 76.7226 68.2016 76.9143 68.1745L76.9197 68.1737L77.5316 68.1325L77.7991 67.5355Z" fill="#1E175B"/>
<path fill-rule="evenodd" clip-rule="evenodd" d="M81.2327 66.4628C81.3188 66.2901 81.5661 66.2901 81.6512 66.4644L81.6541 66.4703L81.903 67.044L82.5317 67.1084C82.7226 67.1368 82.7988 67.3721 82.6599 67.5069L82.6555 67.5111L82.1719 67.9427L82.3184 68.5381L82.3193 68.5434C82.3515 68.7341 82.151 68.8789 81.9801 68.7885L81.9729 68.7847L81.4415 68.4644L80.8887 68.7853C80.7177 68.8739 80.518 68.729 80.551 68.5382L80.5522 68.5314L80.6892 67.9144L80.217 67.4994C80.0789 67.3639 80.1562 67.1289 80.3479 67.1017L80.3533 67.101L80.9652 67.0598L81.2327 66.4628Z" fill="#1E175B"/>
<path fill-rule="evenodd" clip-rule="evenodd" d="M84.6097 64.9796C84.6957 64.8069 84.9431 64.8069 85.0282 64.9813L85.0311 64.9872L85.2799 65.5609L85.9086 65.6252C86.0995 65.6536 86.1758 65.8889 86.0368 66.0237L86.0325 66.028L85.5489 66.4595L85.6954 67.0549L85.6963 67.0603C85.7285 67.2509 85.5279 67.3957 85.3571 67.3054L85.3499 67.3016L84.8184 66.9812L84.2657 67.3022C84.0946 67.3908 83.8949 67.2458 83.9279 67.0551L83.9291 67.0483L84.0662 66.4312L83.594 66.0163C83.4559 65.8808 83.5332 65.6457 83.7249 65.6186L83.7302 65.6178L84.3422 65.5766L84.6097 64.9796Z" fill="#1E175B"/>
<path fill-rule="evenodd" clip-rule="evenodd" d="M87.7642 62.734C87.8503 62.5613 88.0976 62.5613 88.1827 62.7357L88.1856 62.7416L88.4345 63.3153L89.0632 63.3796C89.254 63.408 89.3303 63.6433 89.1914 63.7781L89.187 63.7824L88.7034 64.2139L88.8499 64.8093L88.8508 64.8147C88.883 65.0053 88.6824 65.1501 88.5116 65.0598L88.5044 65.0559L87.973 64.7356L87.4202 65.0566C87.2492 65.1452 87.0495 65.0002 87.0825 64.8095L87.0837 64.8027L87.2207 64.1856L86.7485 63.7707C86.6104 63.6352 86.6877 63.4001 86.8794 63.373L86.8848 63.3722L87.4967 63.331L87.7642 62.734Z" fill="#1E175B"/>
<path fill-rule="evenodd" clip-rule="evenodd" d="M90.7327 60.3607C90.8188 60.188 91.0661 60.188 91.1512 60.3624L91.1541 60.3683L91.403 60.942L92.0317 61.0063C92.2226 61.0347 92.2988 61.27 92.1599 61.4048L92.1555 61.4091L91.6719 61.8406L91.8184 62.436L91.8193 62.4414C91.8515 62.632 91.651 62.7769 91.4801 62.6865L91.4729 62.6827L90.9415 62.3623L90.3887 62.6833C90.2177 62.7719 90.018 62.6269 90.051 62.4362L90.0522 62.4294L90.1892 61.8123L89.717 61.3974C89.5789 61.2619 89.6562 61.0268 89.8479 60.9997L89.8533 60.9989L90.4652 60.9577L90.7327 60.3607Z" fill="#1E175B"/>
<path d="M36.7014 79.2957C36.0235 79.284 35.4785 79.0297 35.0665 78.5329C34.6544 78.0361 34.456 77.3452 34.4713 76.4602C34.4835 75.7509 34.6298 75.0974 34.9101 74.4995C35.1967 73.8954 35.6006 73.4127 36.1217 73.0513C36.6491 72.6837 37.211 72.505 37.8072 72.5153C38.4098 72.5257 38.9036 72.6535 39.2886 72.8987C39.6799 73.1441 39.8722 73.4613 39.8655 73.8505C39.8589 74.2333 39.7469 74.5359 39.5296 74.7582C39.2786 74.7538 38.9907 74.6986 38.6661 74.5926C38.3414 74.4865 38.0987 74.3599 37.938 74.2127L38.1327 73.3026C38.002 73.2375 37.8738 73.2039 37.7483 73.2018C37.3843 73.1955 37.0587 73.5069 36.7716 74.1361C36.4846 74.759 36.3338 75.4941 36.3192 76.3414C36.2973 77.6092 36.6441 78.2493 37.3596 78.2617C37.7864 78.2691 38.2674 78.0451 38.8027 77.5897L39.2375 78.0398C39.1859 78.1206 39.0549 78.2533 38.8445 78.438C38.6343 78.6164 38.434 78.7605 38.2438 78.8703C38.0598 78.9801 37.8258 79.0796 37.5417 79.1689C37.2639 79.2583 36.9838 79.3005 36.7014 79.2957Z" fill="#1E175B"/>
<path d="M40.5007 79.1258C40.4544 79.2631 40.3057 79.3296 40.0547 79.3253C39.8099 79.3211 39.5666 79.2321 39.3247 79.0584C39.5284 78.5346 39.9295 77.6657 40.5281 76.4517C41.133 75.2316 41.538 74.3219 41.7429 73.7228C41.7631 73.6478 41.7736 73.5852 41.7744 73.535C41.7754 73.4785 41.7547 73.4028 41.7124 73.3079C41.6701 73.213 41.6243 73.1368 41.5751 73.0795L41.5107 72.9936L41.5516 72.806C42.1128 72.665 42.7763 72.6011 43.542 72.6143L44.2663 72.6645C44.3281 72.722 44.3883 72.8706 44.4469 73.1102C44.5056 73.3498 44.5402 73.7083 44.5508 74.1856C44.5614 74.6629 44.5585 75.5576 44.5421 76.8694C44.531 77.8801 44.6478 78.3875 44.8926 78.3917C44.9553 78.3928 45.0908 78.3637 45.299 78.3046L45.3937 78.2779L45.5821 78.818C45.3214 79.0081 45.0175 79.1567 44.6703 79.2637C44.3232 79.3707 44.0115 79.4219 43.7353 79.4171C43.3337 79.4102 43.0596 79.283 42.9132 79.0356C42.7732 78.7821 42.7065 78.4607 42.7132 78.0716C42.72 77.6762 42.7279 77.4032 42.7368 77.2527C42.618 77.2255 42.3859 77.2089 42.0407 77.203C41.6955 77.197 41.3968 77.2264 41.1446 77.2911C40.9016 77.9085 40.687 78.52 40.5007 79.1258ZM42.7881 76.4625C42.8289 75.917 42.8541 75.368 42.8636 74.8157C42.8731 74.2634 42.8487 73.8611 42.7903 73.609C42.7275 73.6079 42.6834 73.6134 42.6581 73.6256C42.5128 74.0437 42.1262 74.9819 41.4983 76.4402L42.7881 76.4625Z" fill="#1E175B"/>
<path d="M46.8179 79.4232L46.6013 79.4195C46.6103 78.8985 46.7742 77.9502 47.0931 76.5744C47.4119 75.1987 47.5893 74.3762 47.6254 74.1068C47.6678 73.8313 47.6933 73.6246 47.702 73.4866C47.1118 73.489 46.6395 73.5718 46.2851 73.7352C46.1066 73.525 45.9989 73.2186 45.9619 72.8162C46.2713 72.7148 46.7994 72.6705 47.5463 72.6834L50.5103 72.8287C50.6547 72.8312 50.8839 72.8289 51.1979 72.8218C51.2196 73.0231 51.2292 73.1927 51.2268 73.3308C51.2217 73.6258 51.034 73.7701 50.6637 73.7637C50.5507 73.7618 50.3722 73.7399 50.1281 73.698C49.8902 73.6562 49.6803 73.6306 49.4984 73.6212C49.4761 73.8217 49.2988 74.6348 48.9666 76.0606C48.6406 77.4864 48.4718 78.5351 48.4602 79.2067C48.1813 79.3651 47.6338 79.4373 46.8179 79.4232Z" fill="#1E175B"/>
<path d="M56.2364 79.6329C55.7343 79.6242 55.2337 79.5277 54.7346 79.3432C54.3682 79.475 53.9465 79.5368 53.4694 79.5286C53.3627 79.5268 53.2656 79.5188 53.1779 79.5047C53.1844 79.1281 53.3731 78.2022 53.7438 76.7269C54.1146 75.2516 54.3017 74.4167 54.305 74.2221C54.3084 74.0275 54.2737 73.8543 54.201 73.7024C54.1345 73.5505 54.0643 73.4363 53.9903 73.3597L53.8885 73.2543L53.9302 73.0196C54.0877 72.9909 54.4494 72.9532 55.0152 72.9065C55.5875 72.8536 56.0713 72.8306 56.4667 72.8374C57.9982 72.8638 58.7554 73.3697 58.7384 74.3551C58.7305 74.8133 58.5671 75.1841 58.2483 75.4674C57.9358 75.7508 57.5496 75.9387 57.0896 76.0313C57.5218 76.0889 57.8832 76.2521 58.1736 76.5208C58.4642 76.7833 58.6053 77.153 58.5971 77.63C58.5869 78.22 58.3588 78.7058 57.9127 79.0873C57.4668 79.4626 56.908 79.6445 56.2364 79.6329ZM55.9732 76.3322C55.8602 76.3302 55.7345 76.3375 55.5961 76.3539C55.3328 77.423 55.1624 78.1986 55.0851 78.6807C55.2217 78.7646 55.4093 78.8087 55.6478 78.8128C56.0119 78.8191 56.2875 78.6732 56.4747 78.375C56.6619 78.0769 56.7588 77.7395 56.7653 77.3629C56.7719 76.9801 56.7074 76.7153 56.5718 76.5685C56.4426 76.4156 56.2431 76.3368 55.9732 76.3322ZM55.8626 75.6428C56.1388 75.6476 56.3571 75.5477 56.5176 75.3433C56.8062 74.9904 56.9543 74.5975 56.9618 74.1644C56.9693 73.725 56.8225 73.5028 56.5212 73.4976L56.2099 73.5298C56.1994 73.7745 56.0554 74.4784 55.7779 75.6413L55.8626 75.6428Z" fill="#1E175B"/>
<path d="M61.8206 78.4861C62.078 78.4906 62.4063 78.3832 62.8056 78.1641C62.8197 78.0764 62.9751 77.4356 63.272 76.2416C63.569 75.0412 63.7218 74.1869 63.7306 73.6785C63.7338 73.4902 63.7329 73.3615 63.7278 73.2923C64.3593 73.0835 64.9606 72.984 65.5317 72.9939C65.5686 73.0384 65.5856 73.1455 65.5827 73.3149C65.5762 73.6915 65.4041 74.5675 65.0665 75.9429C64.7351 77.3184 64.5673 78.1286 64.5631 78.3734C64.5589 78.6119 64.6008 78.7319 64.6887 78.7334C64.7452 78.7344 64.9153 78.6965 65.1992 78.6198L65.3878 79.1504C64.7905 79.567 64.2187 79.7706 63.6727 79.7612C63.4154 79.7568 63.2063 79.681 63.0456 79.5338C62.885 79.3866 62.7879 79.1903 62.7545 78.9449C61.9732 79.465 61.3065 79.7204 60.7541 79.7108C60.3964 79.7047 60.1031 79.6023 59.8742 79.4037C59.6517 79.199 59.5434 78.9271 59.5492 78.5882C59.5552 78.243 59.7023 77.5392 59.9906 76.4769C60.2789 75.4145 60.4279 74.6072 60.4374 74.0549C60.4392 73.9482 60.4067 73.8314 60.3398 73.7047C60.2792 73.5781 60.2182 73.4766 60.1567 73.4002L60.0551 73.2854L60.0866 73.0976C60.4843 72.9727 61.1665 72.9185 62.133 72.9352C62.2495 73.1004 62.3043 73.3776 62.2976 73.7668C62.2909 74.1559 62.143 74.9036 61.8539 76.0099C61.5649 77.1162 61.4184 77.7823 61.4145 78.0082C61.4091 78.3221 61.5445 78.4814 61.8206 78.4861Z" fill="#1E175B"/>
<path d="M67.0165 79.7718L66.7999 79.7681C66.8089 79.2472 66.9728 78.2988 67.2917 76.9231C67.6105 75.5473 67.7879 74.7248 67.824 74.4555C67.8664 74.1799 67.8919 73.9732 67.9006 73.8352C67.3104 73.8376 66.8381 73.9205 66.4837 74.0839C66.3052 73.8736 66.1975 73.5673 66.1605 73.1648C66.4699 73.0634 66.998 73.0192 67.7449 73.0321L70.7089 73.1774C70.8533 73.1799 71.0825 73.1776 71.3965 73.1704C71.4182 73.3717 71.4278 73.5414 71.4254 73.6795C71.4203 73.9745 71.2326 74.1188 70.8623 74.1124C70.7493 74.1104 70.5708 74.0885 70.3267 74.0466C70.0888 74.0048 69.8789 73.9792 69.697 73.9698C69.6747 74.1703 69.4974 74.9835 69.1652 76.4092C68.8392 77.835 68.6704 78.8837 68.6589 79.5553C68.3799 79.7138 67.8324 79.7859 67.0165 79.7718Z" fill="#1E175B"/>
<path d="M74.5577 80.0621C74.2941 80.0576 73.9105 79.9128 73.4068 79.6279C72.9095 79.343 72.6202 79.1905 72.5389 79.1703C72.1537 79.6596 71.798 79.9015 71.4716 79.8958C71.3837 79.8943 71.254 79.7696 71.0825 79.5218C70.911 79.274 70.8271 79.0434 70.8308 78.83C70.8324 78.7359 70.9317 78.6214 71.1287 78.4867C71.3257 78.3457 71.5503 78.2491 71.8023 78.197C71.9786 77.8045 72.1553 77.2079 72.3323 76.4074C72.5156 75.6069 72.6126 74.9023 72.6231 74.2934C72.6248 74.193 72.5922 74.0794 72.5254 73.9527C72.4648 73.8261 72.4037 73.7246 72.3423 73.6482L72.2407 73.5334L72.2722 73.3456C72.6201 73.1947 73.3369 73.1286 74.4228 73.1473C74.5205 73.306 74.5661 73.5736 74.5596 73.9502C74.5531 74.3268 74.3755 74.9766 74.0268 75.8998C73.6781 76.823 73.3316 77.6238 72.9871 78.3022C73.6119 78.4762 74.2099 78.5681 74.7811 78.578C74.9129 78.5803 75.0201 78.5507 75.1028 78.4894C75.1918 78.4281 75.2882 78.2979 75.3921 78.0988L75.9068 78.2866C75.7961 78.8812 75.6346 79.3273 75.4222 79.625C75.2162 79.9228 74.928 80.0685 74.5577 80.0621Z" fill="#1E175B"/>
<path d="M78.5835 80.028C77.7926 80.0143 77.1882 79.7496 76.7702 79.2339C76.5427 78.9537 76.4324 78.6159 76.4392 78.2205C76.4484 77.687 76.6442 77.254 77.0267 76.9216C77.4092 76.5829 77.8583 76.3897 78.374 76.3421C77.5868 76.1151 77.1992 75.6532 77.2113 74.9565C77.2206 74.4167 77.4602 73.994 77.9301 73.6881C78.4 73.3761 78.93 73.2251 79.52 73.2353C80.1163 73.2456 80.61 73.3765 81.0012 73.6281C81.3924 73.8798 81.5845 74.2064 81.5776 74.6081C81.5736 74.8403 81.507 75.0589 81.3779 75.2639L81.3102 75.3663C81.0529 75.3619 80.7774 75.3194 80.4837 75.239C80.1901 75.1523 79.9691 75.0449 79.8206 74.9168L79.9313 73.9581C79.8379 73.9126 79.7442 73.889 79.65 73.8873C79.4555 73.884 79.303 73.985 79.1928 74.1902C79.0888 74.3956 79.0344 74.6364 79.0296 74.9126C79.0248 75.1887 79.0493 75.4089 79.103 75.5731C79.1629 75.7373 79.2549 75.8645 79.3789 75.9545C79.5093 76.0384 79.6213 76.1 79.7148 76.1393C79.8146 76.1724 79.9521 76.2093 80.1272 76.25L80.0425 76.7947C79.6094 76.7872 79.2087 76.9028 78.8405 77.1413C78.4722 77.3798 78.2845 77.7061 78.2773 78.1204C78.2723 78.4154 78.3627 78.6335 78.5486 78.7749C78.7346 78.9099 78.9563 78.9797 79.2136 78.9841C79.4772 78.9887 79.7545 78.9275 80.0455 78.8007C80.3365 78.6739 80.5873 78.5118 80.7979 78.3146L81.2142 78.7455C80.938 79.1112 80.5591 79.4186 80.0776 79.6677C79.5962 79.9168 79.0981 80.0369 78.5835 80.028Z" fill="#1E175B"/>
<path d="M83.5965 79.8132C83.2234 79.97 82.7701 80.0438 82.2366 80.0345C82.0546 80.0314 81.8917 80.0129 81.7479 79.979C81.755 79.5648 81.9468 78.6358 82.3233 77.192C82.7062 75.742 82.9009 74.8287 82.9074 74.4521C82.91 74.3015 82.8005 74.0987 82.5789 73.8437L82.4775 73.7195L82.5093 73.5129C83.3655 73.377 84.3145 73.3181 85.3564 73.336C85.9841 73.3469 86.4778 73.4778 86.8376 73.7289C87.1975 73.9737 87.3735 74.3283 87.3655 74.7928C87.3575 75.2509 87.2248 75.6693 86.9671 76.0478C86.7095 76.4201 86.3467 76.7089 85.8785 76.9143C86.0735 77.6208 86.2618 78.1734 86.4432 78.5721C86.6247 78.9708 86.7751 79.1711 86.8943 79.1732C86.9947 79.1749 87.1523 79.14 87.367 79.0683L87.4806 79.0326L87.6978 79.5449C87.1382 79.9559 86.5509 80.1561 85.9358 80.1455C85.327 80.135 84.9337 79.8205 84.756 79.2022C84.6022 78.6596 84.4819 77.9889 84.3952 77.19L84.0657 77.1844C83.7605 78.4975 83.6041 79.3738 83.5965 79.8132ZM84.4659 76.3719C84.6667 76.3754 84.8404 76.3156 84.9869 76.1926C85.1397 76.0697 85.2555 75.9084 85.3343 75.7089C85.4792 75.3158 85.5549 74.9342 85.5612 74.5638C85.5676 74.1935 85.4045 74.0055 85.0718 73.9998C84.9714 73.998 84.8708 74.0057 84.7701 74.0228C84.7605 74.2173 84.5933 74.9929 84.2685 76.3497C84.3122 76.363 84.378 76.3704 84.4659 76.3719Z" fill="#1E175B"/>
<path d="M34.0059 44.8481C33.6705 44.8423 33.4048 44.72 33.2088 44.4812C33.0188 44.2366 32.9269 43.9318 32.9332 43.567C32.9395 43.2022 32.9712 42.7319 33.0282 42.156C33.0853 41.5802 33.118 41.0481 33.1264 40.5597C33.1348 40.0713 33.094 39.7116 33.0038 39.4805C32.9641 39.3915 32.8434 39.2216 32.6418 38.971L32.5293 38.8366L32.5676 38.6607C33.0878 38.5343 33.7951 38.4788 34.6895 38.4942C34.8336 38.6674 34.9014 39.0041 34.8928 39.5042C34.8841 40.0044 34.8385 40.604 34.7558 41.303C34.6732 41.9961 34.6291 42.5015 34.6236 42.8193C34.6182 43.137 34.6381 43.3463 34.6834 43.4471C34.7288 43.548 34.8044 43.5993 34.9103 43.6012C35.0162 43.603 35.1555 43.5495 35.3281 43.4406C35.5007 43.3259 35.6382 43.2046 35.7405 43.0769C35.7411 43.0416 35.7888 42.6628 35.8837 41.9405C35.9845 41.2123 36.0391 40.61 36.0473 40.1334C36.0555 39.6567 36.0069 39.235 35.9014 38.8683C36.4174 38.6418 37.0344 38.5318 37.7523 38.5383C37.8487 38.7518 37.8931 39.0763 37.8856 39.5117C37.8781 39.9472 37.79 40.6196 37.6213 41.529C37.4584 42.4385 37.3756 42.9756 37.3727 43.1404C37.367 43.4699 37.4466 43.6361 37.6113 43.6389C37.782 43.6419 37.9993 43.4985 38.2633 43.2087C38.5331 42.9191 38.7779 42.5466 38.9977 42.0913C39.2234 41.6302 39.3516 41.1969 39.3821 40.7913L38.3963 40.1033C38.4584 39.5746 38.6544 39.1307 38.9844 38.7714C39.0563 38.6961 39.1398 38.6299 39.235 38.5727C39.6587 38.58 39.9774 38.6973 40.1913 38.9247C40.4051 39.152 40.5097 39.4011 40.5051 39.6717C40.4967 40.1542 40.3784 40.7025 40.15 41.3166C39.9217 41.9248 39.6323 42.4937 39.2818 43.0233C38.9372 43.5529 38.5292 43.9991 38.058 44.3618C37.5926 44.7246 37.1392 44.9022 36.6979 44.8945C36.4626 44.8905 36.255 44.8104 36.0752 44.6542C35.8955 44.4981 35.7759 44.2635 35.7166 43.9506C35.1175 44.5582 34.5473 44.8574 34.0059 44.8481Z" fill="#1E175B"/>
<path d="M45.7524 39.4621C45.9189 39.7004 46.0411 39.9527 46.1189 40.2189C46.1968 40.4851 46.2325 40.8006 46.2262 41.1654C46.2199 41.5303 46.1482 41.9352 46.011 42.3801C45.8797 42.8252 45.684 43.2515 45.4239 43.659C45.1697 44.0608 44.8198 44.3873 44.374 44.6386C43.9282 44.8898 43.4229 45.0106 42.858 45.0009C42.1695 44.989 41.6322 44.7472 41.246 44.2756C40.8598 43.8039 40.6728 43.215 40.6849 42.5089C40.6971 41.8028 40.8407 41.1608 41.1155 40.5828C41.3963 39.9991 41.787 39.529 42.2876 39.1728C42.7942 38.8107 43.3534 38.6349 43.9654 38.6455C44.3773 38.6526 44.735 38.7294 45.0385 38.8759C45.3479 39.0225 45.5859 39.2179 45.7524 39.4621ZM42.7128 44.2038C42.8173 44.288 42.9696 44.3318 43.1697 44.3352C43.3756 44.3388 43.5689 44.2244 43.7495 43.9921C43.936 43.754 44.0826 43.4475 44.1891 43.0727C44.3902 42.3345 44.4976 41.5682 44.5113 40.7739C44.528 39.8089 44.301 39.3223 43.8302 39.3142C43.6066 39.3103 43.4018 39.4127 43.2157 39.6214C43.0356 39.8243 42.8897 40.0925 42.778 40.4261C42.5485 41.1049 42.427 41.8356 42.4135 42.6182C42.3984 43.495 42.4982 44.0235 42.7128 44.2038Z" fill="#1E175B"/>
<path d="M48.448 44.8237C48.0982 44.9707 47.6733 45.0398 47.1731 45.0312C47.0025 45.0283 46.8497 45.0109 46.7149 44.9791C46.7216 44.5908 46.9014 43.7198 47.2544 42.3663C47.6134 41.0069 47.7959 40.1507 47.802 39.7977C47.8044 39.6565 47.7018 39.4663 47.494 39.2273L47.3989 39.1109L47.4287 38.9172C48.2314 38.7898 49.1211 38.7345 50.0979 38.7513C50.6863 38.7615 51.1492 38.8843 51.4865 39.1196C51.824 39.3491 51.9889 39.6816 51.9814 40.117C51.974 40.5466 51.8495 40.9388 51.6079 41.2937C51.3665 41.6426 51.0263 41.9134 50.5874 42.106C50.7702 42.7683 50.9467 43.2864 51.1168 43.6602C51.2869 44.0339 51.4279 44.2218 51.5397 44.2237C51.6338 44.2253 51.7816 44.1925 51.9828 44.1254L52.0894 44.0919L52.293 44.5722C51.7684 44.9575 51.2177 45.1452 50.6411 45.1352C50.0703 45.1254 49.7016 44.8306 49.5351 44.2509C49.3908 43.7422 49.2781 43.1134 49.1968 42.3645L48.8879 42.3591C48.6018 43.5903 48.4552 44.4118 48.448 44.8237ZM49.263 41.5975C49.4513 41.6008 49.6141 41.5447 49.7515 41.4294C49.8948 41.3141 50.0033 41.163 50.0772 40.9759C50.213 40.6074 50.2839 40.2496 50.2899 39.9024C50.2959 39.5553 50.143 39.379 49.8311 39.3736C49.737 39.372 49.6427 39.3792 49.5482 39.3952C49.5392 39.5775 49.3824 40.3047 49.078 41.5767C49.119 41.5891 49.1806 41.5961 49.263 41.5975Z" fill="#1E175B"/>
<path d="M55.6911 45.3283C55.444 45.3241 55.0843 45.1884 54.6122 44.9212C54.1459 44.6542 53.8747 44.5112 53.7985 44.4922C53.4374 44.951 53.1039 45.1777 52.7979 45.1724C52.7155 45.171 52.594 45.0541 52.4332 44.8218C52.2724 44.5895 52.1937 44.3733 52.1971 44.1732C52.1987 44.085 52.2918 43.9777 52.4764 43.8514C52.6611 43.7192 52.8717 43.6286 53.1079 43.5798C53.2732 43.2118 53.4388 42.6525 53.6048 41.902C53.7767 41.1516 53.8676 40.491 53.8774 39.9202C53.879 39.8261 53.8485 39.7196 53.7858 39.6008C53.729 39.4821 53.6718 39.3869 53.6142 39.3153L53.5189 39.2077L53.5484 39.0316C53.8746 38.8901 54.5467 38.8281 55.5646 38.8457C55.6562 38.9944 55.699 39.2453 55.6929 39.5984C55.6868 39.9514 55.5203 40.5607 55.1934 41.4262C54.8665 42.2917 54.5416 43.0424 54.2187 43.6784C54.8045 43.8415 55.3651 43.9277 55.9005 43.937C56.0241 43.9391 56.1247 43.9114 56.2022 43.8539C56.2856 43.7965 56.376 43.6744 56.4734 43.4877L56.9559 43.6638C56.8521 44.2212 56.7007 44.6394 56.5016 44.9185C56.3085 45.1977 56.0383 45.3343 55.6911 45.3283Z" fill="#1E175B"/>
<path d="M60.0744 45.298C59.6802 45.2912 59.3108 45.2083 58.9663 45.0494C58.6643 45.156 58.3397 45.2063 57.9925 45.2003C57.6512 45.1944 57.4689 45.1883 57.4454 45.182C57.4524 44.776 57.6294 43.9021 57.9763 42.5602C58.3233 41.2124 58.4983 40.4473 58.5015 40.2649C58.5047 40.0766 58.4723 39.9083 58.4043 39.76C58.3421 39.6117 58.2763 39.4988 58.207 39.4211L58.1118 39.3135L58.1418 39.1109C58.3131 39.0727 58.6552 39.0315 59.168 38.9874C59.6868 38.9433 60.1344 38.9246 60.511 38.9311C61.4172 38.9467 62.0847 39.1466 62.5137 39.5307C62.9486 39.909 63.1589 40.5101 63.1447 41.3339C63.1336 41.9752 63.0052 42.5969 62.7594 43.1989C62.5195 43.7952 62.1606 44.2981 61.6827 44.7078C61.2048 45.1115 60.6688 45.3083 60.0744 45.298ZM60.6238 39.5599C60.5178 39.5581 60.403 39.5649 60.2791 39.5804C60.2555 39.9214 60.0919 40.7043 59.7883 41.9293C59.4847 43.1483 59.2966 43.9838 59.2241 44.4358C59.3291 44.4906 59.4551 44.5192 59.6023 44.5218C59.9141 44.5271 60.1931 44.3907 60.4392 44.1124C60.6912 43.8342 60.8856 43.4844 61.0224 43.063C61.2903 42.2083 61.4302 41.4308 61.4423 40.7306C61.4496 40.3069 61.39 40.0087 61.2635 39.8358C61.143 39.6571 60.9297 39.5652 60.6238 39.5599Z" fill="#1E175B"/>
<path d="M65.9319 39.7839C65.9274 40.0487 65.8038 40.385 65.5614 40.7929C65.319 41.1948 65.099 41.4912 64.9015 41.682L64.4293 41.4178C64.665 41.0629 64.8151 40.7211 64.8796 40.3926L64.2517 39.9403C64.2556 39.7167 64.3182 39.503 64.4394 39.2991C64.5607 39.0893 64.7167 38.9183 64.9074 38.7862C65.5998 38.91 65.9413 39.2426 65.9319 39.7839Z" fill="#1E175B"/>
<path d="M70.3369 43.7535C70.3285 44.2419 70.0861 44.6468 69.6096 44.9682C69.1391 45.2897 68.5949 45.4451 67.9771 45.4344C67.4946 45.4261 67.0874 45.3161 66.7556 45.1043C66.4296 44.8927 66.2682 44.6927 66.2715 44.5044C66.3696 44.2766 66.5533 44.0325 66.8227 43.7723C67.0921 43.5121 67.3386 43.378 67.5624 43.3701C67.7084 43.4374 67.841 43.6016 67.9601 43.8626C68.0852 44.1178 68.183 44.4138 68.2538 44.7506C68.5717 44.7443 68.7337 44.5675 68.7397 44.2204C68.7436 43.9909 68.6602 43.7099 68.4894 43.3773C68.3245 43.039 68.1416 42.7239 67.9406 42.432C67.7396 42.1401 67.5539 41.8161 67.3835 41.46C67.219 41.104 67.139 40.7936 67.1435 40.5288C67.1511 40.0934 67.3573 39.7409 67.7622 39.4712C68.1671 39.2015 68.6137 39.0709 69.1021 39.0794C69.5964 39.0879 69.977 39.2004 70.244 39.4169C70.5169 39.6335 70.651 39.8801 70.6462 40.1567C70.6423 40.3861 70.592 40.5707 70.4954 40.7103C70.3989 40.844 70.3206 40.9486 70.2604 41.0241C70.2063 41.0938 70.1314 41.169 70.0358 41.2497C69.8567 41.3997 69.7194 41.5091 69.624 41.5781L69.49 41.6729C69.8297 42.1085 70.0829 42.6132 70.2496 43.187C70.3108 43.394 70.3399 43.5829 70.3369 43.7535ZM69.9391 40.2063C69.9438 39.9297 69.7697 39.7884 69.4166 39.7823C69.2107 39.7787 69.0422 39.82 68.9113 39.906C68.7862 39.9921 68.7225 40.1029 68.7201 40.2382C68.7179 40.3676 68.7681 40.5274 68.8708 40.7176C68.9793 40.9078 69.0653 41.0417 69.1287 41.1193C69.2711 41.0511 69.4411 40.9246 69.6385 40.7396C69.8359 40.5547 69.9361 40.3769 69.9391 40.2063Z" fill="#1E175B"/>
<path d="M75.965 45.5723C75.4942 45.5642 75.0249 45.4737 74.557 45.3008C74.2135 45.4244 73.8181 45.4823 73.3709 45.4746C73.2709 45.4728 73.1798 45.4654 73.0976 45.4522C73.1037 45.0991 73.2806 44.2311 73.6282 42.848C73.9758 41.4649 74.1511 40.6821 74.1543 40.4997C74.1574 40.3173 74.1249 40.1549 74.0568 40.0125C73.9945 39.8701 73.9286 39.763 73.8592 39.6912L73.7638 39.5924L73.8029 39.3724C73.9505 39.3455 74.2896 39.3102 74.8201 39.2664C75.3566 39.2168 75.8102 39.1952 76.1809 39.2016C77.6166 39.2263 78.3265 39.7006 78.3106 40.6245C78.3031 41.054 78.15 41.4016 77.8511 41.6672C77.5581 41.9329 77.196 42.1091 76.7649 42.1958C77.1701 42.2499 77.5088 42.4029 77.7811 42.6548C78.0535 42.9008 78.1858 43.2474 78.1781 43.6946C78.1686 44.2477 77.9547 44.7032 77.5365 45.0609C77.1184 45.4127 76.5946 45.5832 75.965 45.5723ZM75.7182 42.4779C75.6123 42.4761 75.4944 42.4829 75.3647 42.4983C75.1178 43.5005 74.9581 44.2276 74.8856 44.6796C75.0137 44.7583 75.1896 44.7996 75.4132 44.8035C75.7545 44.8094 76.0129 44.6726 76.1884 44.3931C76.3639 44.1136 76.4547 43.7973 76.4608 43.4443C76.467 43.0853 76.4065 42.8371 76.2794 42.6995C76.1583 42.5562 75.9712 42.4823 75.7182 42.4779ZM75.6146 41.8316C75.8735 41.8361 76.0781 41.7425 76.2286 41.5509C76.4992 41.22 76.638 40.8516 76.645 40.4456C76.6521 40.0337 76.5144 39.8253 76.232 39.8205L75.9401 39.8507C75.9303 40.0801 75.7953 40.74 75.5351 41.8303L75.6146 41.8316Z" fill="#1E175B"/>
<path d="M80.8621 45.6657C80.1207 45.6529 79.5541 45.4047 79.1622 44.9212C78.9489 44.6585 78.8455 44.3418 78.8519 43.9711C78.8605 43.471 79.0441 43.0651 79.4027 42.7534C79.7613 42.4359 80.1823 42.2548 80.6658 42.2102C79.9278 41.9973 79.5645 41.5643 79.5757 40.9112C79.5845 40.4051 79.8091 40.0087 80.2496 39.7221C80.6902 39.4295 81.1871 39.288 81.7402 39.2975C82.2992 39.3072 82.7621 39.4299 83.1288 39.6658C83.4955 39.9017 83.6757 40.2079 83.6692 40.5845C83.6654 40.8022 83.603 41.0072 83.482 41.1993L83.4185 41.2953C83.1773 41.2912 82.919 41.2514 82.6436 41.176C82.3684 41.0947 82.1612 40.994 82.022 40.8739L82.1258 39.9752C82.0382 39.9324 81.9503 39.9103 81.8621 39.9088C81.6797 39.9057 81.5368 40.0003 81.4334 40.1928C81.3359 40.3853 81.2849 40.611 81.2804 40.87C81.276 41.1289 81.2989 41.3353 81.3492 41.4892C81.4054 41.6432 81.4916 41.7624 81.6079 41.8468C81.7301 41.9254 81.8351 41.9831 81.9227 42.02C82.0164 42.051 82.1453 42.0856 82.3094 42.1238L82.23 42.6345C81.824 42.6275 81.4483 42.7358 81.1031 42.9593C80.7579 43.1829 80.5819 43.4889 80.5752 43.8773C80.5704 44.1538 80.6552 44.3584 80.8295 44.4909C81.0038 44.6175 81.2117 44.6829 81.4529 44.687C81.7001 44.6913 81.96 44.634 82.2328 44.5151C82.5056 44.3962 82.7408 44.2443 82.9382 44.0593L83.3285 44.4634C83.0695 44.8062 82.7143 45.0943 82.263 45.3279C81.8116 45.5614 81.3447 45.674 80.8621 45.6657Z" fill="#1E175B"/>
<path d="M87.6699 44.0527C87.6615 44.5411 87.4191 44.946 86.9426 45.2674C86.4721 45.5889 85.9279 45.7443 85.3101 45.7336C84.8276 45.7253 84.4204 45.6152 84.0885 45.4035C83.7626 45.1919 83.6012 44.9919 83.6045 44.8036C83.7026 44.5758 83.8863 44.3317 84.1557 44.0715C84.425 43.8113 84.6716 43.6772 84.8954 43.6693C85.0414 43.7366 85.174 43.9007 85.293 44.1618C85.4181 44.417 85.516 44.713 85.5867 45.0497C85.9047 45.0434 86.0667 44.8667 86.0727 44.5196C86.0766 44.2901 85.9932 44.009 85.8223 43.6765C85.6575 43.3381 85.4746 43.023 85.2736 42.7311C85.0726 42.4393 84.8869 42.1153 84.7165 41.7592C84.5519 41.4032 84.472 41.0928 84.4765 40.828C84.484 40.3926 84.6903 40.04 85.0951 39.7704C85.5 39.5007 85.9467 39.3701 86.4351 39.3785C86.9294 39.3871 87.31 39.4996 87.577 39.7161C87.8499 39.9327 87.984 40.1793 87.9792 40.4558C87.9753 40.6853 87.925 40.8699 87.8284 41.0095C87.7319 41.1432 87.6536 41.2478 87.5934 41.3232C87.5392 41.3929 87.4644 41.4682 87.3688 41.5489C87.1896 41.6989 87.0524 41.8083 86.957 41.8773L86.8229 41.9721C87.1627 42.4077 87.4159 42.9123 87.5826 43.4861C87.6437 43.6932 87.6729 43.8821 87.6699 44.0527ZM87.272 40.5054C87.2768 40.2289 87.1027 40.0876 86.7496 40.0815C86.5437 40.0779 86.3752 40.1191 86.2442 40.2052C86.1191 40.2913 86.0554 40.402 86.0531 40.5374C86.0509 40.6668 86.1011 40.8266 86.2037 41.0167C86.3123 41.207 86.3983 41.3409 86.4617 41.4185C86.6041 41.3503 86.774 41.2238 86.9715 41.0388C87.1689 40.8539 87.2691 40.6761 87.272 40.5054Z" fill="#1E175B"/>
<path d="M89.0319 45.7537L88.8289 45.7502C88.8373 45.2618 88.991 44.3727 89.2899 43.083C89.5888 41.7932 89.7551 41.0221 89.7889 40.7696C89.8287 40.5113 89.8526 40.3175 89.8607 40.1881C89.3074 40.1904 88.8646 40.2681 88.5324 40.4212C88.3651 40.2241 88.2641 39.9369 88.2294 39.5596C88.5195 39.4646 89.0146 39.4231 89.7148 39.4352L92.4936 39.5714C92.6289 39.5737 92.8438 39.5716 93.1382 39.5649C93.1585 39.7536 93.1675 39.9127 93.1653 40.0421C93.1605 40.3187 92.9845 40.4539 92.6374 40.448C92.5314 40.4461 92.3641 40.4256 92.1352 40.3863C91.9122 40.3471 91.7154 40.3231 91.5449 40.3143C91.524 40.5023 91.3578 41.2646 91.0463 42.6012C90.7407 43.938 90.5825 44.9211 90.5716 45.5507C90.3101 45.6992 89.7968 45.7669 89.0319 45.7537Z" fill="#1E175B"/>
<path d="M43.9318 54.3195C44.0927 54.0993 44.2065 53.9599 44.2732 53.9014C44.3389 53.8402 44.4236 53.7913 44.5271 53.7546C44.6333 53.717 44.7277 53.7244 44.8103 53.7767C44.8929 53.829 44.9581 53.9225 45.0057 54.0571C45.091 54.2978 45.1051 54.5842 45.0478 54.9162C44.9906 55.2483 44.879 55.55 44.7129 55.8215C44.546 56.0904 44.3589 56.2616 44.1518 56.3349C44.1001 56.3533 44.0396 56.3718 43.9705 56.3904C43.939 56.7046 43.8958 56.9486 43.8408 57.1225C43.7859 57.2964 43.7066 57.4017 43.6031 57.4383C43.5383 57.4613 43.4796 57.4559 43.4269 57.4221C43.3741 57.3883 43.3331 57.33 43.3037 57.2472C43.2093 56.9805 43.2062 56.581 43.2944 56.0487C43.3817 55.5137 43.5252 55.0593 43.725 54.6856C43.7059 54.5 43.6826 54.3684 43.6551 54.2908C43.6266 54.2105 43.6025 54.1506 43.5826 54.111L43.8457 53.9654C43.8521 53.9835 43.8808 54.1015 43.9318 54.3195ZM43.5996 56.2071L43.7276 56.223C43.7779 55.8468 43.7886 55.4409 43.7596 55.0054C43.6269 55.3875 43.5387 55.7596 43.4951 56.1218C43.4515 56.4839 43.459 56.7479 43.5177 56.9136C43.5351 56.9627 43.5594 56.9818 43.5904 56.9708C43.6137 56.9626 43.6382 56.9 43.6638 56.7831C43.6885 56.6637 43.7037 56.5461 43.7093 56.4305C43.6702 56.4269 43.6296 56.415 43.5875 56.395L43.5996 56.2071ZM43.9915 56.1907L44.0667 56.1684C44.3178 56.0795 44.5066 55.864 44.6331 55.522C44.7033 55.3253 44.7462 55.1134 44.7619 54.8864C44.7803 54.6585 44.7651 54.4759 44.7165 54.3387C44.6899 54.2636 44.6481 54.2114 44.5911 54.1821C44.5367 54.1518 44.4746 54.1491 44.4047 54.1738C44.2778 54.2188 44.1343 54.3483 43.9741 54.5623C44.0513 54.9283 44.0571 55.4711 43.9915 56.1907Z" fill="white" fill-opacity="0.8"/>
<path d="M47.2871 55.054L47.392 55.0911C47.3865 55.2154 47.3491 55.3321 47.28 55.4411C47.2134 55.5492 47.1412 55.617 47.0636 55.6445C46.9885 55.6711 46.9198 55.6663 46.8574 55.6301C46.7942 55.5913 46.7474 55.5292 46.7171 55.4438C46.6869 55.3583 46.6621 55.2433 46.6429 55.0986C46.5891 55.3332 46.5116 55.5297 46.4103 55.6879C46.309 55.8462 46.2105 55.9423 46.1147 55.9762C45.9697 56.0276 45.8606 55.9497 45.7872 55.7426C45.7248 55.5665 45.7046 55.3202 45.7265 55.0036C45.7484 54.687 45.7787 54.4971 45.8175 54.4339L46.0328 54.4494C45.9871 54.6578 45.9665 54.8545 45.9708 55.0395C45.9751 55.2244 45.9874 55.3453 46.0076 55.4023C46.0268 55.4567 46.0592 55.4947 46.1048 55.5164C46.153 55.5373 46.2003 55.5394 46.2469 55.5229C46.3505 55.4862 46.4452 55.3464 46.531 55.1033C46.6184 54.8567 46.6755 54.516 46.7021 54.0812L46.9318 54.1003C46.934 54.1229 46.9276 54.2941 46.9127 54.6141C46.9004 54.9331 46.9044 55.1211 46.9246 55.178C46.9438 55.2324 46.9701 55.2697 47.0035 55.2899C47.0395 55.3092 47.0691 55.3147 47.0924 55.3065C47.1183 55.2973 47.1373 55.2891 47.1493 55.282C47.1613 55.2748 47.1724 55.265 47.1826 55.2527C47.1928 55.2403 47.2009 55.2302 47.2068 55.2223C47.2153 55.2134 47.2238 55.2002 47.2321 55.1827L47.2536 55.1445C47.256 55.1349 47.2609 55.1201 47.2684 55.0999C47.2775 55.0763 47.2837 55.061 47.2871 55.054Z" fill="white" fill-opacity="0.8"/>
<path d="M48.1919 53.6671C48.2566 53.6442 48.3174 53.6474 48.3744 53.6768C48.4315 53.7061 48.4723 53.7557 48.4971 53.8256C48.5466 53.9654 48.5186 54.1414 48.4131 54.3536L48.2938 54.3128C48.3016 54.2197 48.2991 54.155 48.2863 54.1188C48.2615 54.0489 48.2103 54.0277 48.1326 54.0552C48.055 54.0827 47.9986 54.158 47.9636 54.2812C47.9285 54.4043 47.8998 54.5864 47.8774 54.8274C47.8566 55.0649 47.8368 55.2351 47.8178 55.338L47.5621 55.3193C47.5899 54.9453 47.604 54.7261 47.6046 54.6618C47.6029 54.4351 47.5471 54.1665 47.4371 53.8558L47.6339 53.7206C47.6857 53.8916 47.7204 54.0264 47.7379 54.1251C47.7544 54.2212 47.7696 54.3834 47.7834 54.6116C47.8771 54.0452 48.0132 53.7304 48.1919 53.6671Z" fill="white" fill-opacity="0.8"/>
<path d="M49.8968 54.0946L50.0109 54.1329C49.97 54.2726 49.893 54.4048 49.7798 54.5294C49.6657 54.6514 49.5426 54.7358 49.4106 54.7826C49.2786 54.8293 49.1587 54.8281 49.0509 54.7788C48.9432 54.7296 48.8668 54.6416 48.8219 54.5147C48.7375 54.2765 48.7801 53.9978 48.9496 53.6784C49.1217 53.3582 49.3372 53.1522 49.5961 53.0605C49.7669 53 49.8762 53.037 49.9239 53.1717C49.9734 53.3114 49.9327 53.4846 49.802 53.6912C49.6738 53.8968 49.4672 54.1157 49.1823 54.3477C49.2267 54.399 49.2794 54.4328 49.3405 54.449C49.4016 54.4652 49.4581 54.4642 49.5099 54.4458C49.6212 54.4064 49.7502 54.2893 49.8968 54.0946ZM49.1216 54.2381C49.3056 54.0913 49.4535 53.937 49.5651 53.7751C49.6767 53.6132 49.7165 53.4869 49.6844 53.3963C49.6725 53.3627 49.649 53.3375 49.6139 53.3208C49.5789 53.304 49.5445 53.3016 49.5109 53.3136C49.3892 53.3567 49.2842 53.4798 49.1959 53.683C49.1093 53.8826 49.0846 54.0677 49.1216 54.2381Z" fill="white" fill-opacity="0.8"/>
<path d="M53.2578 50.9943L52.6984 51.1794C52.1315 51.3802 51.892 51.6048 51.98 51.8534C52.003 51.9181 52.0451 51.9629 52.1063 51.9878C52.1693 52.0092 52.2486 52.003 52.3444 51.969C52.4402 51.9351 52.5502 51.8466 52.6743 51.7036L52.7683 51.7839C52.7183 51.8978 52.6516 51.9972 52.568 52.0821C52.4845 52.1671 52.3922 52.2274 52.2913 52.2632C52.1903 52.2989 52.0917 52.296 51.9953 52.2544C51.899 52.2127 51.833 52.1414 51.7972 52.0405C51.7248 51.836 51.7715 51.6184 51.9375 51.3877C52.106 51.1561 52.3792 50.9734 52.7572 50.8395C52.7883 50.8285 52.9014 50.7942 53.0967 50.7367C53.2919 50.6792 53.4452 50.6308 53.5565 50.5913C53.6678 50.5519 53.7641 50.4989 53.8454 50.4322C53.878 50.409 53.8981 50.396 53.9059 50.3933C53.9421 50.3804 53.9685 50.3973 53.985 50.4439C54.0089 50.5112 53.9709 50.5932 53.871 50.6897C53.7738 50.7853 53.6488 50.8602 53.4961 50.9143C53.3839 51.1405 53.3364 51.4836 53.3537 51.9437C53.3727 52.4002 53.3313 52.7689 53.2297 53.0496C53.1298 53.3268 52.9582 53.5085 52.7148 53.5947C52.619 53.6286 52.5174 53.6297 52.41 53.5978L52.447 53.4186C52.4836 53.4231 52.5236 53.425 52.567 53.4242L52.6241 53.4127C52.638 53.4107 52.6579 53.4051 52.6838 53.3959C52.8132 53.3501 52.9064 53.2471 52.9633 53.0871C53.0229 52.9262 53.0473 52.6538 53.0367 52.2701C53.0277 51.8829 53.0346 51.6226 53.0573 51.4893C53.0817 51.3524 53.1485 51.1875 53.2578 50.9943Z" fill="white" fill-opacity="0.8"/>
<path d="M55.3871 52.1849L55.492 52.2221C55.4865 52.3464 55.4492 52.463 55.38 52.572C55.3134 52.6801 55.2412 52.7479 55.1636 52.7754C55.0885 52.802 55.0198 52.7972 54.9574 52.761C54.8942 52.7222 54.8474 52.6601 54.8172 52.5747C54.7869 52.4893 54.7622 52.3742 54.743 52.2295C54.6891 52.4642 54.6116 52.6606 54.5103 52.8189C54.409 52.9771 54.3105 53.0732 54.2147 53.1071C54.0697 53.1585 53.9606 53.0806 53.8872 52.8735C53.8249 52.6975 53.8046 52.4512 53.8265 52.1346C53.8484 51.818 53.8787 51.6281 53.9175 51.5648L54.1328 51.5803C54.0872 51.7888 54.0665 51.9855 54.0708 52.1704C54.0752 52.3553 54.0874 52.4763 54.1076 52.5332C54.1268 52.5876 54.1592 52.6257 54.2048 52.6474C54.253 52.6682 54.3004 52.6704 54.347 52.6539C54.4505 52.6172 54.5452 52.4773 54.631 52.2342C54.7185 51.9876 54.7755 51.6469 54.8021 51.2121L55.0318 51.2313C55.034 51.2538 55.0276 51.4251 55.0127 51.745C55.0005 52.064 55.0044 52.252 55.0246 52.309C55.0438 52.3633 55.0701 52.4006 55.1035 52.4208C55.1395 52.4401 55.1691 52.4457 55.1924 52.4374C55.2183 52.4282 55.2373 52.4201 55.2493 52.4129C55.2613 52.4057 55.2725 52.396 55.2826 52.3836C55.2928 52.3713 55.3009 52.3611 55.3068 52.3532C55.3154 52.3444 55.3238 52.3312 55.3322 52.3136L55.3536 52.2755C55.356 52.2659 55.361 52.251 55.3684 52.2309C55.3775 52.2073 55.3837 52.1919 55.3871 52.1849Z" fill="white" fill-opacity="0.8"/>
<path d="M57.1521 51.5117L57.2557 51.5449C57.2391 51.679 57.194 51.8027 57.1206 51.9162C57.0497 52.0287 56.9741 52.0991 56.8939 52.1276C56.8136 52.156 56.742 52.1552 56.6789 52.1251C56.6158 52.095 56.5718 52.045 56.5471 51.9751C56.5223 51.9052 56.5232 51.7679 56.5498 51.5633C56.5781 51.3552 56.5775 51.2097 56.5482 51.1268C56.5353 51.0906 56.5083 51.0637 56.4672 51.0463C56.4277 51.0253 56.3873 51.0221 56.3458 51.0368C56.2138 51.0836 56.1163 51.2318 56.0532 51.4814C55.9891 51.7284 55.9412 52.0702 55.9094 52.5069L55.6476 52.5078C55.5904 52.1901 55.5567 51.8728 55.5464 51.556C55.5378 51.2356 55.5503 50.9995 55.584 50.8478L55.7611 50.8419C55.7537 51.0513 55.7741 51.401 55.8224 51.8909C55.9632 51.1534 56.1838 50.7315 56.4841 50.6251C56.5488 50.6022 56.6097 50.6054 56.6667 50.6347C56.7263 50.6632 56.7666 50.7071 56.7877 50.7667C56.8088 50.8262 56.8203 50.8833 56.8222 50.938C56.8231 50.9901 56.8134 51.1189 56.7929 51.3242C56.7741 51.5261 56.7725 51.6491 56.7881 51.6931C56.8036 51.7371 56.829 51.7674 56.864 51.7842C56.8982 51.7983 56.9269 51.8012 56.9502 51.793C56.9735 51.7847 56.9915 51.774 57.0043 51.7607C57.0171 51.7474 57.0298 51.7298 57.0424 51.7079C57.0576 51.685 57.0707 51.6643 57.0816 51.6459C57.0926 51.6274 57.1048 51.6042 57.1181 51.5761C57.1332 51.5446 57.1445 51.5231 57.1521 51.5117Z" fill="white" fill-opacity="0.8"/>
<path d="M59.0197 50.9376L59.1324 50.9719C59.1237 51.0624 59.0825 51.1601 59.0089 51.2648C58.9379 51.3686 58.8622 51.4348 58.782 51.4632C58.6292 51.5173 58.5244 51.4641 58.4676 51.3036C58.441 51.2285 58.4288 51.1323 58.4309 51.015L58.3395 51.2135C58.2502 51.4054 58.1624 51.5442 58.0763 51.6301C57.9927 51.715 57.9018 51.7749 57.8034 51.8098C57.705 51.8446 57.6203 51.844 57.5493 51.808C57.4799 51.7685 57.4278 51.6995 57.393 51.6012C57.3288 51.4199 57.3354 51.2166 57.4129 50.991C57.4894 50.7629 57.6167 50.5546 57.7947 50.3663C57.9727 50.1779 58.17 50.044 58.3866 49.9644L58.4397 50.0897L58.289 50.1825C58.0718 50.3177 57.9 50.495 57.7738 50.7146C57.6502 50.9332 57.6159 51.1201 57.671 51.2754C57.7251 51.4282 57.8142 51.4825 57.9385 51.4385C58.055 51.3973 58.1698 51.2648 58.2829 51.0412C58.396 50.8176 58.4705 50.5756 58.5065 50.3152L58.7039 50.3545C58.6581 50.735 58.6507 50.9692 58.6819 51.0572C58.6947 51.0935 58.7174 51.1204 58.7498 51.138C58.784 51.1522 58.8127 51.1551 58.836 51.1469C58.8619 51.1377 58.8783 51.1304 58.8851 51.1251C58.892 51.1198 58.8988 51.1144 58.9057 51.1091C58.9116 51.1011 58.9184 51.0915 58.926 51.08C58.9361 51.0677 58.9438 51.0562 58.9488 51.0457C58.9564 51.0343 58.9678 51.0171 58.983 50.9943C58.9982 50.9714 59.0104 50.9525 59.0197 50.9376Z" fill="white" fill-opacity="0.8"/>
<g filter="url(#filter8_i_7206_54534)">
<path d="M68.6599 48.7161C68.6069 49.0326 68.5182 49.6552 68.5166 50.388C68.5153 50.9553 68.569 51.7632 68.5805 51.8848C68.6055 52.1484 68.7593 52.2671 68.9717 52.2483C69.1841 52.2296 74.0686 51.8484 74.6505 51.747C75.2324 51.6456 75.7086 51.4658 74.89 50.7867C74.0714 50.1075 73.437 49.7247 72.04 48.9731C70.8911 48.2931 69.9487 48.1465 69.7588 48.0985C69.3579 47.9971 68.7129 48.3996 68.6599 48.7161Z" fill="#404F66"/>
</g>
<g filter="url(#filter9_ii_7206_54534)">
<path d="M68.6599 48.7161C68.6069 49.0326 68.5182 49.6552 68.5166 50.388C68.5153 50.9553 68.569 51.7632 68.5805 51.8848C68.6055 52.1484 68.7593 52.2671 68.9717 52.2483C69.1841 52.2296 74.0686 51.8484 74.6505 51.747C75.2324 51.6456 75.7086 51.4658 74.89 50.7867C74.0714 50.1075 73.437 49.7247 72.04 48.9731C70.8911 48.2931 69.9487 48.1465 69.7588 48.0985C69.3579 47.9971 68.7129 48.3996 68.6599 48.7161Z" fill="url(#paint2_linear_7206_54534)"/>
</g>
<g filter="url(#filter10_iiii_7206_54534)">
<path d="M34.0837 54.8791C35.2958 56.5762 38.0607 60.3354 39.5112 60.8774C39.5333 61.948 39.3857 63.8104 39.256 64.7426C38.473 64.7588 36.731 65.0603 35.3026 65.5323C33.8742 66.0042 32.9891 66.5399 32.3643 66.9953C31.7396 67.4506 30.5477 68.6314 30.5219 67.4062C30.4922 65.9965 30.5516 64.95 31.2135 63.3726C31.6486 62.3357 32.2431 61.4777 32.7868 60.769C32.6547 59.8921 32.5256 58.8993 32.5043 57.8647C32.468 56.1044 33.543 54.1219 34.0837 54.8791Z" fill="url(#paint3_linear_7206_54534)"/>
</g>
<g filter="url(#filter11_ii_7206_54534)">
<path d="M46.2307 58.238C43.7835 59.3018 39.681 60.2236 38.5618 60.1939C37.653 62.0797 38.2462 64.0397 38.6564 64.7839C41.3521 65.3617 56.1855 68.9624 68.3795 67.8017C77.043 66.9771 83.6554 63.2783 85.8216 61.6216C88.3854 59.6607 92.5802 55.6843 92.3888 54.1754C92.2843 53.3516 90.583 52.8994 88.7647 52.5379C87.0678 52.2005 79.2934 50.2454 69.6912 51.3642C58.0805 52.717 49.2897 56.9082 46.2307 58.238Z" fill="url(#paint4_linear_7206_54534)"/>
</g>
<g filter="url(#filter12_i_7206_54534)">
<path d="M46.2307 58.238C43.7835 59.3018 39.681 60.2236 38.5618 60.1939C38.174 60.9985 38.0597 61.8165 38.0879 62.5479C42.5465 62.905 52.9016 63.5112 58.6536 63.0795C73.5868 61.9588 90.6248 58.6582 92.3888 54.1754C92.2843 53.3516 90.583 52.8994 88.7647 52.5379C87.0678 52.2005 79.2934 50.2454 69.6912 51.3642C58.0805 52.717 49.2897 56.9082 46.2307 58.238Z" fill="url(#paint5_linear_7206_54534)"/>
</g>
<g filter="url(#filter13_ii_7206_54534)">
<path d="M46.2307 58.238C43.7835 59.3018 39.681 60.2236 38.5618 60.1939C38.174 60.9985 38.0597 61.8165 38.0879 62.5479C42.5465 62.905 52.9016 63.5112 58.6536 63.0795C73.5868 61.9588 90.6248 58.6582 92.3888 54.1754C92.2843 53.3516 90.583 52.8994 88.7647 52.5379C87.0678 52.2005 79.2934 50.2454 69.6912 51.3642C58.0805 52.717 49.2897 56.9082 46.2307 58.238Z" fill="url(#paint6_linear_7206_54534)"/>
</g>
<g filter="url(#filter14_f_7206_54534)">
<path d="M38.221 61.1477C40.0692 61.038 46.0559 60.0105 48.8454 58.9434C47.3882 61.6918 49.1058 64.7801 50.1467 65.9807C47.6198 65.8182 41.4466 64.8546 38.5628 64.3775C37.9565 63.5316 37.9917 61.9274 38.221 61.1477Z" fill="url(#paint7_linear_7206_54534)" fill-opacity="0.5"/>
</g>
<g filter="url(#filter15_ii_7206_54534)">
<path fill-rule="evenodd" clip-rule="evenodd" d="M79.1117 54.0786C79.3148 54.2068 79.3755 54.4752 79.2474 54.6783C79.1591 54.8182 78.938 55.3964 79.1469 56.1682C79.2488 56.5448 79.4425 56.8786 79.6542 57.1402C79.8706 57.4078 80.0831 57.5722 80.196 57.6303C80.4094 57.7402 80.4933 58.0024 80.3834 58.2158C80.2735 58.4293 80.0114 58.5132 79.7979 58.4033C79.5469 58.274 79.2452 58.0171 78.9782 57.6871C78.7064 57.3511 78.4472 56.911 78.3076 56.3954C78.0335 55.3826 78.2974 54.5545 78.5121 54.2143C78.6402 54.0113 78.9086 53.9505 79.1117 54.0786Z" fill="url(#paint8_linear_7206_54534)"/>
</g>
<g filter="url(#filter16_ii_7206_54534)">
<path fill-rule="evenodd" clip-rule="evenodd" d="M81.0743 53.6546C81.2774 53.7827 81.3381 54.0512 81.21 54.2542C81.1217 54.3942 80.9006 54.9724 81.1095 55.7441C81.2115 56.1208 81.4051 56.4545 81.6168 56.7161C81.8333 56.9837 82.0458 57.1481 82.1586 57.2062C82.3721 57.3162 82.456 57.5783 82.3461 57.7918C82.2362 58.0052 81.974 58.0891 81.7606 57.9792C81.5095 57.8499 81.2079 57.593 80.9409 57.263C80.6691 56.927 80.4098 56.4869 80.2703 55.9713C79.9961 54.9586 80.2601 54.1304 80.4747 53.7903C80.6028 53.5872 80.8713 53.5265 81.0743 53.6546Z" fill="url(#paint9_linear_7206_54534)"/>
</g>
<g filter="url(#filter17_d_7206_54534)">
<circle cx="85.292" cy="55.18" r="1.18191" transform="rotate(-1.18112 85.292 55.18)" fill="url(#paint10_linear_7206_54534)"/>
</g>
<g filter="url(#filter18_i_7206_54534)">
<ellipse cx="85.2943" cy="55.18" rx="0.787942" ry="0.787942" transform="rotate(-1.18112 85.2943 55.18)" fill="url(#paint11_linear_7206_54534)"/>
</g>
<g filter="url(#filter19_ii_7206_54534)">
<ellipse cx="85.2943" cy="55.18" rx="0.787942" ry="0.787942" transform="rotate(-1.18112 85.2943 55.18)" fill="url(#paint12_linear_7206_54534)"/>
</g>
<g filter="url(#filter20_dii_7206_54534)">
<path d="M70.4239 58.9099C71.8502 59.3608 73.3062 59.9683 75.056 60.8373C75.3505 60.9836 75.3917 61.3754 75.0687 61.618C74.7457 61.8606 73.7312 62.4368 72.8428 62.8415C71.9544 63.2462 70.8995 63.6092 70.519 63.6908C70.1386 63.7724 69.9507 63.6858 69.8705 63.3129C69.7902 62.94 69.6729 62.1686 69.6568 61.3875C69.6407 60.6064 69.7315 59.5856 69.788 59.3127C69.8445 59.0398 70.1012 58.8078 70.4239 58.9099Z" fill="url(#paint13_linear_7206_54534)"/>
</g>
<g filter="url(#filter21_f_7206_54534)">
<path d="M71.098 51.1067C70.1587 51.1822 68.8187 51.3673 68.5679 51.5189C68.6037 51.7209 69.1978 51.815 70.8326 51.7333C72.4673 51.6517 75.0947 51.4145 75.0866 51.0244C74.7946 50.8641 72.2721 51.0123 71.098 51.1067Z" fill="url(#paint14_linear_7206_54534)"/>
</g>
<path fill-rule="evenodd" clip-rule="evenodd" d="M21.4955 36.243C20.6379 37.79 20.1643 38.6444 21.0442 40.4544L25.8394 50.9114C27.1586 53.8765 29.7472 56.824 35.332 55.9549C37.1751 55.6681 39.4396 54.1113 40.1571 53.4331C40.8746 52.755 41.6423 51.8854 42.3582 50.6343C43.9929 46.81 42.8546 42.1099 39.7081 39.6798L31.4539 33.3051C29.6177 31.887 28.4139 31.033 26.3662 32.1505C26.1528 32.2669 25.7305 32.4554 25.262 32.6646C24.4806 33.0134 23.5707 33.4195 23.2884 33.644C22.7404 34.0796 22.3332 34.6929 21.8587 35.5796C21.7323 35.8158 21.6104 36.0357 21.4955 36.243ZM37.9704 52.4632C41.1946 50.1422 42.2322 45.5495 40.1571 42.875C38.4136 40.6278 33.7861 39.9295 30.5619 42.2505C27.3378 44.5716 26.202 49.1513 28.2771 51.8259C30.3522 54.5004 34.7463 54.7842 37.9704 52.4632Z" fill="url(#paint15_linear_7206_54534)"/>
<g filter="url(#filter22_ii_7206_54534)">
<path fill-rule="evenodd" clip-rule="evenodd" d="M21.8187 36.4825C21.0075 37.9505 20.5595 38.7613 21.3919 40.4789L26.0442 50.5628C27.9051 54.4028 29.9114 56.2676 35.1943 55.4429C36.9122 55.3714 39.175 53.675 39.8537 53.0315C40.5325 52.388 41.1302 51.7185 41.8075 50.5312C43.8653 46.9234 42.2429 42.1662 39.2664 39.8601L31.2389 33.6945C29.502 32.3488 28.3632 31.5385 26.4262 32.5989C26.2243 32.7094 25.8248 32.8883 25.3817 33.0867C24.6425 33.4177 23.7818 33.8031 23.5148 34.0161C22.9963 34.4295 22.6112 35.0115 22.1623 35.8529C22.0427 36.0771 21.9275 36.2857 21.8187 36.4825ZM38.0531 52.5481C41.4902 50.0659 42.7244 45.4273 40.5122 42.5671C38.3 39.7068 33.479 39.5178 30.0419 41.9999C26.6048 44.4821 25.7044 48.4201 27.7802 51.7194C29.9924 54.5796 34.616 55.0302 38.0531 52.5481Z" fill="url(#paint16_linear_7206_54534)"/>
</g>
<g filter="url(#filter23_dii_7206_54534)">
<path fill-rule="evenodd" clip-rule="evenodd" d="M28.9503 39.459C30.2371 38.1691 30.2334 36.2632 29.0881 35.1964C27.9429 34.1297 25.9717 34.196 24.6848 35.4859C23.398 36.7758 23.5384 38.7869 24.6836 39.8537C25.8289 40.9204 27.6635 40.7489 28.9503 39.459ZM29.374 39.8537C30.8535 38.3705 30.9084 36.1021 29.4966 34.787C28.0847 33.4719 25.7407 33.6081 24.2611 35.0913C22.7816 36.5744 22.8634 38.948 24.2752 40.2631C25.6871 41.5782 27.8944 41.3368 29.374 39.8537Z" fill="#DEE0E5"/>
</g>
<g filter="url(#filter24_ii_7206_54534)">
<path d="M28.4707 36.5829C28.9383 37.3931 28.5784 38.448 27.6669 38.9392C26.7553 39.4304 25.6544 39.3011 25.1869 38.4909C24.7193 37.6807 25.0621 36.4964 25.9737 36.0052C26.8852 35.514 28.0032 35.7727 28.4707 36.5829Z" fill="url(#paint17_linear_7206_54534)"/>
</g>
<g filter="url(#filter25_dii_7206_54534)">
<path fill-rule="evenodd" clip-rule="evenodd" d="M27.4719 38.5119C28.2136 38.1123 28.425 37.3989 28.0837 36.8075C27.7424 36.2161 26.9183 36.0053 26.1766 36.4049C25.4349 36.8046 25.2235 37.6626 25.5648 38.2541C25.9061 38.8455 26.7302 38.9116 27.4719 38.5119ZM27.6665 38.9393C28.578 38.4482 28.9379 37.3932 28.4703 36.583C28.0028 35.7728 26.8848 35.5142 25.9733 36.0054C25.0617 36.4965 24.7072 37.664 25.1747 38.4742C25.6423 39.2844 26.7549 39.4305 27.6665 38.9393Z" fill="#DCDEE4"/>
</g>
</g>
<defs>
<filter id="filter0_d_7206_54534" x="7.23333" y="21.5153" width="110.711" height="83.8871" filterUnits="userSpaceOnUse" color-interpolation-filters="sRGB">
<feFlood flood-opacity="0" result="BackgroundImageFix"/>
<feColorMatrix in="SourceAlpha" type="matrix" values="0 0 0 0 0 0 0 0 0 0 0 0 0 0 0 0 0 0 127 0" result="hardAlpha"/>
<feOffset dx="2.08889" dy="4.17778"/>
<feGaussianBlur stdDeviation="4.17778"/>
<feComposite in2="hardAlpha" operator="out"/>
<feColorMatrix type="matrix" values="0 0 0 0 0.540482 0 0 0 0 0.58249 0 0 0 0 0.666504 0 0 0 0.5 0"/>
<feBlend mode="normal" in2="BackgroundImageFix" result="effect1_dropShadow_7206_54534"/>
<feBlend mode="normal" in="SourceGraphic" in2="effect1_dropShadow_7206_54534" result="shape"/>
</filter>
<filter id="filter1_i_7206_54534" x="12.9115" y="25.1046" width="94.5885" height="67.7645" filterUnits="userSpaceOnUse" color-interpolation-filters="sRGB">
<feFlood flood-opacity="0" result="BackgroundImageFix"/>
<feBlend mode="normal" in="SourceGraphic" in2="BackgroundImageFix" result="shape"/>
<feColorMatrix in="SourceAlpha" type="matrix" values="0 0 0 0 0 0 0 0 0 0 0 0 0 0 0 0 0 0 127 0" result="hardAlpha"/>
<feOffset dx="-0.588507" dy="-0.588507"/>
<feGaussianBlur stdDeviation="0.588507"/>
<feComposite in2="hardAlpha" operator="arithmetic" k2="-1" k3="1"/>
<feColorMatrix type="matrix" values="0 0 0 0 0.734756 0 0 0 0 0.751031 0 0 0 0 0.804508 0 0 0 1 0"/>
<feBlend mode="normal" in2="shape" result="effect1_innerShadow_7206_54534"/>
</filter>
<filter id="filter2_ii_7206_54534" x="13.6417" y="25.3614" width="93.2639" height="67.1343" filterUnits="userSpaceOnUse" color-interpolation-filters="sRGB">
<feFlood flood-opacity="0" result="BackgroundImageFix"/>
<feBlend mode="normal" in="SourceGraphic" in2="BackgroundImageFix" result="shape"/>
<feColorMatrix in="SourceAlpha" type="matrix" values="0 0 0 0 0 0 0 0 0 0 0 0 0 0 0 0 0 0 127 0" result="hardAlpha"/>
<feOffset dx="-0.588507" dy="-0.588507"/>
<feGaussianBlur stdDeviation="0.588507"/>
<feComposite in2="hardAlpha" operator="arithmetic" k2="-1" k3="1"/>
<feColorMatrix type="matrix" values="0 0 0 0 1 0 0 0 0 1 0 0 0 0 1 0 0 0 0.5 0"/>
<feBlend mode="normal" in2="shape" result="effect1_innerShadow_7206_54534"/>
<feColorMatrix in="SourceAlpha" type="matrix" values="0 0 0 0 0 0 0 0 0 0 0 0 0 0 0 0 0 0 127 0" result="hardAlpha"/>
<feOffset dx="0.588507" dy="0.588507"/>
<feGaussianBlur stdDeviation="0.588507"/>
<feComposite in2="hardAlpha" operator="arithmetic" k2="-1" k3="1"/>
<feColorMatrix type="matrix" values="0 0 0 0 1 0 0 0 0 1 0 0 0 0 1 0 0 0 0.8 0"/>
<feBlend mode="normal" in2="effect1_innerShadow_7206_54534" result="effect2_innerShadow_7206_54534"/>
</filter>
<filter id="filter3_ii_7206_54534" x="14.8015" y="26.6484" width="92.5723" height="66.4424" filterUnits="userSpaceOnUse" color-interpolation-filters="sRGB">
<feFlood flood-opacity="0" result="BackgroundImageFix"/>
<feBlend mode="normal" in="SourceGraphic" in2="BackgroundImageFix" result="shape"/>
<feColorMatrix in="SourceAlpha" type="matrix" values="0 0 0 0 0 0 0 0 0 0 0 0 0 0 0 0 0 0 127 0" result="hardAlpha"/>
<feOffset dx="2.35403" dy="2.35403"/>
<feGaussianBlur stdDeviation="2.35403"/>
<feComposite in2="hardAlpha" operator="arithmetic" k2="-1" k3="1"/>
<feColorMatrix type="matrix" values="0 0 0 0 0.277754 0 0 0 0 0.482452 0 0 0 0 0.682389 0 0 0 0.8 0"/>
<feBlend mode="normal" in2="shape" result="effect1_innerShadow_7206_54534"/>
<feColorMatrix in="SourceAlpha" type="matrix" values="0 0 0 0 0 0 0 0 0 0 0 0 0 0 0 0 0 0 127 0" result="hardAlpha"/>
<feOffset dx="-1.17701" dy="-1.17701"/>
<feGaussianBlur stdDeviation="2.35403"/>
<feComposite in2="hardAlpha" operator="arithmetic" k2="-1" k3="1"/>
<feColorMatrix type="matrix" values="0 0 0 0 0.368881 0 0 0 0 0.628063 0 0 0 0 0.881217 0 0 0 0.8 0"/>
<feBlend mode="normal" in2="effect1_innerShadow_7206_54534" result="effect2_innerShadow_7206_54534"/>
</filter>
<filter id="filter4_d_7206_54534" x="20.3214" y="32.4122" width="80.5117" height="53.6804" filterUnits="userSpaceOnUse" color-interpolation-filters="sRGB">
<feFlood flood-opacity="0" result="BackgroundImageFix"/>
<feColorMatrix in="SourceAlpha" type="matrix" values="0 0 0 0 0 0 0 0 0 0 0 0 0 0 0 0 0 0 127 0" result="hardAlpha"/>
<feOffset dx="-0.0588507" dy="0.0588507"/>
<feGaussianBlur stdDeviation="0.294254"/>
<feComposite in2="hardAlpha" operator="out"/>
<feColorMatrix type="matrix" values="0 0 0 0 0.178105 0 0 0 0 0.390057 0 0 0 0 0.59777 0 0 0 0.7 0"/>
<feBlend mode="normal" in2="BackgroundImageFix" result="effect1_dropShadow_7206_54534"/>
<feBlend mode="normal" in="SourceGraphic" in2="effect1_dropShadow_7206_54534" result="shape"/>
</filter>
<filter id="filter5_f_7206_54534" x="90.7904" y="71.7425" width="14.9924" height="18.7434" filterUnits="userSpaceOnUse" color-interpolation-filters="sRGB">
<feFlood flood-opacity="0" result="BackgroundImageFix"/>
<feBlend mode="normal" in="SourceGraphic" in2="BackgroundImageFix" result="shape"/>
<feGaussianBlur stdDeviation="0.294254" result="effect1_foregroundBlur_7206_54534"/>
</filter>
<filter id="filter6_f_7206_54534" x="89.1495" y="27.328" width="17.0398" height="16.9055" filterUnits="userSpaceOnUse" color-interpolation-filters="sRGB">
<feFlood flood-opacity="0" result="BackgroundImageFix"/>
<feBlend mode="normal" in="SourceGraphic" in2="BackgroundImageFix" result="shape"/>
<feGaussianBlur stdDeviation="0.294254" result="effect1_foregroundBlur_7206_54534"/>
</filter>
<filter id="filter7_f_7206_54534" x="15.9374" y="80.3112" width="21.7759" height="11.0657" filterUnits="userSpaceOnUse" color-interpolation-filters="sRGB">
<feFlood flood-opacity="0" result="BackgroundImageFix"/>
<feBlend mode="normal" in="SourceGraphic" in2="BackgroundImageFix" result="shape"/>
<feGaussianBlur stdDeviation="0.294254" result="effect1_foregroundBlur_7206_54534"/>
</filter>
<filter id="filter8_i_7206_54534" x="68.5166" y="48.0825" width="7.10529" height="4.46198" filterUnits="userSpaceOnUse" color-interpolation-filters="sRGB">
<feFlood flood-opacity="0" result="BackgroundImageFix"/>
<feBlend mode="normal" in="SourceGraphic" in2="BackgroundImageFix" result="shape"/>
<feColorMatrix in="SourceAlpha" type="matrix" values="0 0 0 0 0 0 0 0 0 0 0 0 0 0 0 0 0 0 127 0" result="hardAlpha"/>
<feOffset dx="0.294254" dy="0.294254"/>
<feGaussianBlur stdDeviation="0.294254"/>
<feComposite in2="hardAlpha" operator="arithmetic" k2="-1" k3="1"/>
<feColorMatrix type="matrix" values="0 0 0 0 1 0 0 0 0 1 0 0 0 0 1 0 0 0 0.7 0"/>
<feBlend mode="normal" in2="shape" result="effect1_innerShadow_7206_54534"/>
</filter>
<filter id="filter9_ii_7206_54534" x="68.2223" y="47.7883" width="7.39954" height="4.75623" filterUnits="userSpaceOnUse" color-interpolation-filters="sRGB">
<feFlood flood-opacity="0" result="BackgroundImageFix"/>
<feBlend mode="normal" in="SourceGraphic" in2="BackgroundImageFix" result="shape"/>
<feColorMatrix in="SourceAlpha" type="matrix" values="0 0 0 0 0 0 0 0 0 0 0 0 0 0 0 0 0 0 127 0" result="hardAlpha"/>
<feOffset dx="0.294254" dy="0.294254"/>
<feGaussianBlur stdDeviation="0.294254"/>
<feComposite in2="hardAlpha" operator="arithmetic" k2="-1" k3="1"/>
<feColorMatrix type="matrix" values="0 0 0 0 1 0 0 0 0 1 0 0 0 0 1 0 0 0 0.7 0"/>
<feBlend mode="normal" in2="shape" result="effect1_innerShadow_7206_54534"/>
<feColorMatrix in="SourceAlpha" type="matrix" values="0 0 0 0 0 0 0 0 0 0 0 0 0 0 0 0 0 0 127 0" result="hardAlpha"/>
<feOffset dx="-0.294254" dy="-0.294254"/>
<feGaussianBlur stdDeviation="0.588507"/>
<feComposite in2="hardAlpha" operator="arithmetic" k2="-1" k3="1"/>
<feColorMatrix type="matrix" values="0 0 0 0 0.0683853 0 0 0 0 0.173439 0 0 0 0 0.334521 0 0 0 1 0"/>
<feBlend mode="normal" in2="effect1_innerShadow_7206_54534" result="effect2_innerShadow_7206_54534"/>
</filter>
<filter id="filter10_iiii_7206_54534" x="30.2216" y="52.3593" width="9.58607" height="15.8807" filterUnits="userSpaceOnUse" color-interpolation-filters="sRGB">
<feFlood flood-opacity="0" result="BackgroundImageFix"/>
<feBlend mode="normal" in="SourceGraphic" in2="BackgroundImageFix" result="shape"/>
<feColorMatrix in="SourceAlpha" type="matrix" values="0 0 0 0 0 0 0 0 0 0 0 0 0 0 0 0 0 0 127 0" result="hardAlpha"/>
<feOffset dy="-2.35403"/>
<feGaussianBlur stdDeviation="1.17701"/>
<feComposite in2="hardAlpha" operator="arithmetic" k2="-1" k3="1"/>
<feColorMatrix type="matrix" values="0 0 0 0 0.262745 0 0 0 0 0.411765 0 0 0 0 0.556863 0 0 0 1 0"/>
<feBlend mode="normal" in2="shape" result="effect1_innerShadow_7206_54534"/>
<feColorMatrix in="SourceAlpha" type="matrix" values="0 0 0 0 0 0 0 0 0 0 0 0 0 0 0 0 0 0 127 0" result="hardAlpha"/>
<feOffset dx="0.294254" dy="0.294254"/>
<feGaussianBlur stdDeviation="0.294254"/>
<feComposite in2="hardAlpha" operator="arithmetic" k2="-1" k3="1"/>
<feColorMatrix type="matrix" values="0 0 0 0 1 0 0 0 0 1 0 0 0 0 1 0 0 0 0.7 0"/>
<feBlend mode="normal" in2="effect1_innerShadow_7206_54534" result="effect2_innerShadow_7206_54534"/>
<feColorMatrix in="SourceAlpha" type="matrix" values="0 0 0 0 0 0 0 0 0 0 0 0 0 0 0 0 0 0 127 0" result="hardAlpha"/>
<feOffset dx="-0.294254" dy="0.117701"/>
<feGaussianBlur stdDeviation="0.294254"/>
<feComposite in2="hardAlpha" operator="arithmetic" k2="-1" k3="1"/>
<feColorMatrix type="matrix" values="0 0 0 0 1 0 0 0 0 1 0 0 0 0 1 0 0 0 0.5 0"/>
<feBlend mode="normal" in2="effect2_innerShadow_7206_54534" result="effect3_innerShadow_7206_54534"/>
<feColorMatrix in="SourceAlpha" type="matrix" values="0 0 0 0 0 0 0 0 0 0 0 0 0 0 0 0 0 0 127 0" result="hardAlpha"/>
<feOffset dx="0.294254" dy="-0.117701"/>
<feGaussianBlur stdDeviation="0.294254"/>
<feComposite in2="hardAlpha" operator="arithmetic" k2="-1" k3="1"/>
<feColorMatrix type="matrix" values="0 0 0 0 0.356561 0 0 0 0 0.57693 0 0 0 0 0.781559 0 0 0 1 0"/>
<feBlend mode="normal" in2="effect3_innerShadow_7206_54534" result="effect4_innerShadow_7206_54534"/>
</filter>
<filter id="filter11_ii_7206_54534" x="38.0837" y="50.4337" width="54.3113" height="18.1856" filterUnits="userSpaceOnUse" color-interpolation-filters="sRGB">
<feFlood flood-opacity="0" result="BackgroundImageFix"/>
<feBlend mode="normal" in="SourceGraphic" in2="BackgroundImageFix" result="shape"/>
<feColorMatrix in="SourceAlpha" type="matrix" values="0 0 0 0 0 0 0 0 0 0 0 0 0 0 0 0 0 0 127 0" result="hardAlpha"/>
<feOffset dy="-0.588507"/>
<feGaussianBlur stdDeviation="0.588507"/>
<feComposite in2="hardAlpha" operator="arithmetic" k2="-1" k3="1"/>
<feColorMatrix type="matrix" values="0 0 0 0 1 0 0 0 0 1 0 0 0 0 1 0 0 0 0.7 0"/>
<feBlend mode="normal" in2="shape" result="effect1_innerShadow_7206_54534"/>
<feColorMatrix in="SourceAlpha" type="matrix" values="0 0 0 0 0 0 0 0 0 0 0 0 0 0 0 0 0 0 127 0" result="hardAlpha"/>
<feOffset dy="0.588507"/>
<feGaussianBlur stdDeviation="0.588507"/>
<feComposite in2="hardAlpha" operator="arithmetic" k2="-1" k3="1"/>
<feColorMatrix type="matrix" values="0 0 0 0 0.706663 0 0 0 0 0.738305 0 0 0 0 0.797542 0 0 0 0.9 0"/>
<feBlend mode="normal" in2="effect1_innerShadow_7206_54534" result="effect2_innerShadow_7206_54534"/>
</filter>
<filter id="filter12_i_7206_54534" x="38.0837" y="51.0222" width="54.3049" height="12.7951" filterUnits="userSpaceOnUse" color-interpolation-filters="sRGB">
<feFlood flood-opacity="0" result="BackgroundImageFix"/>
<feBlend mode="normal" in="SourceGraphic" in2="BackgroundImageFix" result="shape"/>
<feColorMatrix in="SourceAlpha" type="matrix" values="0 0 0 0 0 0 0 0 0 0 0 0 0 0 0 0 0 0 127 0" result="hardAlpha"/>
<feOffset dy="0.588507"/>
<feGaussianBlur stdDeviation="0.588507"/>
<feComposite in2="hardAlpha" operator="arithmetic" k2="-1" k3="1"/>
<feColorMatrix type="matrix" values="0 0 0 0 0.976471 0 0 0 0 0.992157 0 0 0 0 1 0 0 0 0.8 0"/>
<feBlend mode="normal" in2="shape" result="effect1_innerShadow_7206_54534"/>
</filter>
<filter id="filter13_ii_7206_54534" x="38.0837" y="50.4337" width="54.3049" height="13.3836" filterUnits="userSpaceOnUse" color-interpolation-filters="sRGB">
<feFlood flood-opacity="0" result="BackgroundImageFix"/>
<feBlend mode="normal" in="SourceGraphic" in2="BackgroundImageFix" result="shape"/>
<feColorMatrix in="SourceAlpha" type="matrix" values="0 0 0 0 0 0 0 0 0 0 0 0 0 0 0 0 0 0 127 0" result="hardAlpha"/>
<feOffset dy="0.588507"/>
<feGaussianBlur stdDeviation="0.588507"/>
<feComposite in2="hardAlpha" operator="arithmetic" k2="-1" k3="1"/>
<feColorMatrix type="matrix" values="0 0 0 0 0.976471 0 0 0 0 0.992157 0 0 0 0 1 0 0 0 0.5 0"/>
<feBlend mode="normal" in2="shape" result="effect1_innerShadow_7206_54534"/>
<feColorMatrix in="SourceAlpha" type="matrix" values="0 0 0 0 0 0 0 0 0 0 0 0 0 0 0 0 0 0 127 0" result="hardAlpha"/>
<feOffset dy="-0.588507"/>
<feGaussianBlur stdDeviation="0.588507"/>
<feComposite in2="hardAlpha" operator="arithmetic" k2="-1" k3="1"/>
<feColorMatrix type="matrix" values="0 0 0 0 0.168423 0 0 0 0 0.374753 0 0 0 0 0.560954 0 0 0 0.9 0"/>
<feBlend mode="normal" in2="effect1_innerShadow_7206_54534" result="effect2_innerShadow_7206_54534"/>
</filter>
<filter id="filter14_f_7206_54534" x="34.5366" y="55.4123" width="19.1412" height="14.0994" filterUnits="userSpaceOnUse" color-interpolation-filters="sRGB">
<feFlood flood-opacity="0" result="BackgroundImageFix"/>
<feBlend mode="normal" in="SourceGraphic" in2="BackgroundImageFix" result="shape"/>
<feGaussianBlur stdDeviation="1.76552" result="effect1_foregroundBlur_7206_54534"/>
</filter>
<filter id="filter15_ii_7206_54534" x="78.0725" y="53.8938" width="2.47686" height="4.67559" filterUnits="userSpaceOnUse" color-interpolation-filters="sRGB">
<feFlood flood-opacity="0" result="BackgroundImageFix"/>
<feBlend mode="normal" in="SourceGraphic" in2="BackgroundImageFix" result="shape"/>
<feColorMatrix in="SourceAlpha" type="matrix" values="0 0 0 0 0 0 0 0 0 0 0 0 0 0 0 0 0 0 127 0" result="hardAlpha"/>
<feOffset dx="0.117701" dy="0.117701"/>
<feGaussianBlur stdDeviation="0.147127"/>
<feComposite in2="hardAlpha" operator="arithmetic" k2="-1" k3="1"/>
<feColorMatrix type="matrix" values="0 0 0 0 0.735197 0 0 0 0 0.762964 0 0 0 0 0.791992 0 0 0 0.2 0"/>
<feBlend mode="normal" in2="shape" result="effect1_innerShadow_7206_54534"/>
<feColorMatrix in="SourceAlpha" type="matrix" values="0 0 0 0 0 0 0 0 0 0 0 0 0 0 0 0 0 0 127 0" result="hardAlpha"/>
<feOffset dx="-0.117701" dy="-0.117701"/>
<feGaussianBlur stdDeviation="0.147127"/>
<feComposite in2="hardAlpha" operator="arithmetic" k2="-1" k3="1"/>
<feColorMatrix type="matrix" values="0 0 0 0 0 0 0 0 0 0 0 0 0 0 0 0 0 0 0.8 0"/>
<feBlend mode="normal" in2="effect1_innerShadow_7206_54534" result="effect2_innerShadow_7206_54534"/>
</filter>
<filter id="filter16_ii_7206_54534" x="80.0351" y="53.4697" width="2.47686" height="4.67559" filterUnits="userSpaceOnUse" color-interpolation-filters="sRGB">
<feFlood flood-opacity="0" result="BackgroundImageFix"/>
<feBlend mode="normal" in="SourceGraphic" in2="BackgroundImageFix" result="shape"/>
<feColorMatrix in="SourceAlpha" type="matrix" values="0 0 0 0 0 0 0 0 0 0 0 0 0 0 0 0 0 0 127 0" result="hardAlpha"/>
<feOffset dx="0.117701" dy="0.117701"/>
<feGaussianBlur stdDeviation="0.147127"/>
<feComposite in2="hardAlpha" operator="arithmetic" k2="-1" k3="1"/>
<feColorMatrix type="matrix" values="0 0 0 0 0.735197 0 0 0 0 0.762964 0 0 0 0 0.791992 0 0 0 0.2 0"/>
<feBlend mode="normal" in2="shape" result="effect1_innerShadow_7206_54534"/>
<feColorMatrix in="SourceAlpha" type="matrix" values="0 0 0 0 0 0 0 0 0 0 0 0 0 0 0 0 0 0 127 0" result="hardAlpha"/>
<feOffset dx="-0.117701" dy="-0.117701"/>
<feGaussianBlur stdDeviation="0.147127"/>
<feComposite in2="hardAlpha" operator="arithmetic" k2="-1" k3="1"/>
<feColorMatrix type="matrix" values="0 0 0 0 0 0 0 0 0 0 0 0 0 0 0 0 0 0 0.8 0"/>
<feBlend mode="normal" in2="effect1_innerShadow_7206_54534" result="effect2_innerShadow_7206_54534"/>
</filter>
<filter id="filter17_d_7206_54534" x="83.5216" y="53.7038" width="3.54078" height="3.54078" filterUnits="userSpaceOnUse" color-interpolation-filters="sRGB">
<feFlood flood-opacity="0" result="BackgroundImageFix"/>
<feColorMatrix in="SourceAlpha" type="matrix" values="0 0 0 0 0 0 0 0 0 0 0 0 0 0 0 0 0 0 127 0" result="hardAlpha"/>
<feOffset dy="0.294254"/>
<feGaussianBlur stdDeviation="0.294254"/>
<feComposite in2="hardAlpha" operator="out"/>
<feColorMatrix type="matrix" values="0 0 0 0 0 0 0 0 0 0 0 0 0 0 0 0 0 0 0.15 0"/>
<feBlend mode="normal" in2="BackgroundImageFix" result="effect1_dropShadow_7206_54534"/>
<feBlend mode="normal" in="SourceGraphic" in2="effect1_dropShadow_7206_54534" result="shape"/>
</filter>
<filter id="filter18_i_7206_54534" x="84.5063" y="54.3921" width="1.69363" height="1.69363" filterUnits="userSpaceOnUse" color-interpolation-filters="sRGB">
<feFlood flood-opacity="0" result="BackgroundImageFix"/>
<feBlend mode="normal" in="SourceGraphic" in2="BackgroundImageFix" result="shape"/>
<feColorMatrix in="SourceAlpha" type="matrix" values="0 0 0 0 0 0 0 0 0 0 0 0 0 0 0 0 0 0 127 0" result="hardAlpha"/>
<feOffset dx="0.117701" dy="0.117701"/>
<feGaussianBlur stdDeviation="0.294254"/>
<feComposite in2="hardAlpha" operator="arithmetic" k2="-1" k3="1"/>
<feColorMatrix type="matrix" values="0 0 0 0 0.843804 0 0 0 0 0.856641 0 0 0 0 0.874609 0 0 0 0.2 0"/>
<feBlend mode="normal" in2="shape" result="effect1_innerShadow_7206_54534"/>
</filter>
<filter id="filter19_ii_7206_54534" x="84.3886" y="54.2744" width="1.81133" height="1.81133" filterUnits="userSpaceOnUse" color-interpolation-filters="sRGB">
<feFlood flood-opacity="0" result="BackgroundImageFix"/>
<feBlend mode="normal" in="SourceGraphic" in2="BackgroundImageFix" result="shape"/>
<feColorMatrix in="SourceAlpha" type="matrix" values="0 0 0 0 0 0 0 0 0 0 0 0 0 0 0 0 0 0 127 0" result="hardAlpha"/>
<feOffset dx="0.117701" dy="0.117701"/>
<feGaussianBlur stdDeviation="0.294254"/>
<feComposite in2="hardAlpha" operator="arithmetic" k2="-1" k3="1"/>
<feColorMatrix type="matrix" values="0 0 0 0 0.843804 0 0 0 0 0.856641 0 0 0 0 0.874609 0 0 0 0.2 0"/>
<feBlend mode="normal" in2="shape" result="effect1_innerShadow_7206_54534"/>
<feColorMatrix in="SourceAlpha" type="matrix" values="0 0 0 0 0 0 0 0 0 0 0 0 0 0 0 0 0 0 127 0" result="hardAlpha"/>
<feOffset dx="-0.117701" dy="-0.117701"/>
<feGaussianBlur stdDeviation="0.294254"/>
<feComposite in2="hardAlpha" operator="arithmetic" k2="-1" k3="1"/>
<feColorMatrix type="matrix" values="0 0 0 0 0 0 0 0 0 0 0 0 0 0 0 0 0 0 0.8 0"/>
<feBlend mode="normal" in2="effect1_innerShadow_7206_54534" result="effect2_innerShadow_7206_54534"/>
</filter>
<filter id="filter20_dii_7206_54534" x="67.595" y="57.7082" width="9.17069" height="8.36478" filterUnits="userSpaceOnUse" color-interpolation-filters="sRGB">
<feFlood flood-opacity="0" result="BackgroundImageFix"/>
<feColorMatrix in="SourceAlpha" type="matrix" values="0 0 0 0 0 0 0 0 0 0 0 0 0 0 0 0 0 0 127 0" result="hardAlpha"/>
<feOffset dx="-0.294254" dy="0.588507"/>
<feGaussianBlur stdDeviation="0.882761"/>
<feComposite in2="hardAlpha" operator="out"/>
<feColorMatrix type="matrix" values="0 0 0 0 0.317164 0 0 0 0 0.416349 0 0 0 0 0.573877 0 0 0 0.5 0"/>
<feBlend mode="normal" in2="BackgroundImageFix" result="effect1_dropShadow_7206_54534"/>
<feBlend mode="normal" in="SourceGraphic" in2="effect1_dropShadow_7206_54534" result="shape"/>
<feColorMatrix in="SourceAlpha" type="matrix" values="0 0 0 0 0 0 0 0 0 0 0 0 0 0 0 0 0 0 127 0" result="hardAlpha"/>
<feOffset dx="0.117701"/>
<feGaussianBlur stdDeviation="0.294254"/>
<feComposite in2="hardAlpha" operator="arithmetic" k2="-1" k3="1"/>
<feColorMatrix type="matrix" values="0 0 0 0 0.962197 0 0 0 0 0.9669 0 0 0 0 0.980518 0 0 0 0.2 0"/>
<feBlend mode="normal" in2="shape" result="effect2_innerShadow_7206_54534"/>
<feColorMatrix in="SourceAlpha" type="matrix" values="0 0 0 0 0 0 0 0 0 0 0 0 0 0 0 0 0 0 127 0" result="hardAlpha"/>
<feOffset dx="-0.294254" dy="-0.294254"/>
<feGaussianBlur stdDeviation="0.294254"/>
<feComposite in2="hardAlpha" operator="arithmetic" k2="-1" k3="1"/>
<feColorMatrix type="matrix" values="0 0 0 0 0.191397 0 0 0 0 0.235931 0 0 0 0 0.36486 0 0 0 1 0"/>
<feBlend mode="normal" in2="effect2_innerShadow_7206_54534" result="effect3_innerShadow_7206_54534"/>
</filter>
<filter id="filter21_f_7206_54534" x="67.9794" y="50.3649" width="7.69581" height="1.98634" filterUnits="userSpaceOnUse" color-interpolation-filters="sRGB">
<feFlood flood-opacity="0" result="BackgroundImageFix"/>
<feBlend mode="normal" in="SourceGraphic" in2="BackgroundImageFix" result="shape"/>
<feGaussianBlur stdDeviation="0.294254" result="effect1_foregroundBlur_7206_54534"/>
</filter>
<filter id="filter22_ii_7206_54534" x="20.3588" y="31.5233" width="22.665" height="24.2296" filterUnits="userSpaceOnUse" color-interpolation-filters="sRGB">
<feFlood flood-opacity="0" result="BackgroundImageFix"/>
<feBlend mode="normal" in="SourceGraphic" in2="BackgroundImageFix" result="shape"/>
<feColorMatrix in="SourceAlpha" type="matrix" values="0 0 0 0 0 0 0 0 0 0 0 0 0 0 0 0 0 0 127 0" result="hardAlpha"/>
<feOffset dx="-0.588507" dy="-0.588507"/>
<feGaussianBlur stdDeviation="0.294254"/>
<feComposite in2="hardAlpha" operator="arithmetic" k2="-1" k3="1"/>
<feColorMatrix type="matrix" values="0 0 0 0 0.713025 0 0 0 0 0.712756 0 0 0 0 0.72889 0 0 0 1 0"/>
<feBlend mode="normal" in2="shape" result="effect1_innerShadow_7206_54534"/>
<feColorMatrix in="SourceAlpha" type="matrix" values="0 0 0 0 0 0 0 0 0 0 0 0 0 0 0 0 0 0 127 0" result="hardAlpha"/>
<feOffset dx="0.294254" dy="0.117701"/>
<feGaussianBlur stdDeviation="0.294254"/>
<feComposite in2="hardAlpha" operator="arithmetic" k2="-1" k3="1"/>
<feColorMatrix type="matrix" values="0 0 0 0 1 0 0 0 0 1 0 0 0 0 1 0 0 0 0.8 0"/>
<feBlend mode="normal" in2="effect1_innerShadow_7206_54534" result="effect2_innerShadow_7206_54534"/>
</filter>
<filter id="filter23_dii_7206_54534" x="22.7128" y="33.589" width="8.51393" height="8.41554" filterUnits="userSpaceOnUse" color-interpolation-filters="sRGB">
<feFlood flood-opacity="0" result="BackgroundImageFix"/>
<feColorMatrix in="SourceAlpha" type="matrix" values="0 0 0 0 0 0 0 0 0 0 0 0 0 0 0 0 0 0 127 0" result="hardAlpha"/>
<feOffset dx="0.117701" dy="0.294254"/>
<feGaussianBlur stdDeviation="0.294254"/>
<feComposite in2="hardAlpha" operator="out"/>
<feColorMatrix type="matrix" values="0 0 0 0 0.711886 0 0 0 0 0.724971 0 0 0 0 0.783854 0 0 0 0.7 0"/>
<feBlend mode="normal" in2="BackgroundImageFix" result="effect1_dropShadow_7206_54534"/>
<feBlend mode="normal" in="SourceGraphic" in2="effect1_dropShadow_7206_54534" result="shape"/>
<feColorMatrix in="SourceAlpha" type="matrix" values="0 0 0 0 0 0 0 0 0 0 0 0 0 0 0 0 0 0 127 0" result="hardAlpha"/>
<feOffset dx="0.117701"/>
<feGaussianBlur stdDeviation="0.294254"/>
<feComposite in2="hardAlpha" operator="arithmetic" k2="-1" k3="1"/>
<feColorMatrix type="matrix" values="0 0 0 0 1 0 0 0 0 1 0 0 0 0 1 0 0 0 0.9 0"/>
<feBlend mode="normal" in2="shape" result="effect2_innerShadow_7206_54534"/>
<feColorMatrix in="SourceAlpha" type="matrix" values="0 0 0 0 0 0 0 0 0 0 0 0 0 0 0 0 0 0 127 0" result="hardAlpha"/>
<feOffset dy="-0.117701"/>
<feGaussianBlur stdDeviation="0.294254"/>
<feComposite in2="hardAlpha" operator="arithmetic" k2="-1" k3="1"/>
<feColorMatrix type="matrix" values="0 0 0 0 0.711886 0 0 0 0 0.724971 0 0 0 0 0.783854 0 0 0 0.8 0"/>
<feBlend mode="normal" in2="effect2_innerShadow_7206_54534" result="effect3_innerShadow_7206_54534"/>
</filter>
<filter id="filter24_ii_7206_54534" x="24.3898" y="35.1678" width="4.87428" height="4.64772" filterUnits="userSpaceOnUse" color-interpolation-filters="sRGB">
<feFlood flood-opacity="0" result="BackgroundImageFix"/>
<feBlend mode="normal" in="SourceGraphic" in2="BackgroundImageFix" result="shape"/>
<feColorMatrix in="SourceAlpha" type="matrix" values="0 0 0 0 0 0 0 0 0 0 0 0 0 0 0 0 0 0 127 0" result="hardAlpha"/>
<feOffset dx="-0.588507" dy="-0.588507"/>
<feGaussianBlur stdDeviation="1.17701"/>
<feComposite in2="hardAlpha" operator="arithmetic" k2="-1" k3="1"/>
<feColorMatrix type="matrix" values="0 0 0 0 0.87451 0 0 0 0 0.882353 0 0 0 0 0.901961 0 0 0 1 0"/>
<feBlend mode="normal" in2="shape" result="effect1_innerShadow_7206_54534"/>
<feColorMatrix in="SourceAlpha" type="matrix" values="0 0 0 0 0 0 0 0 0 0 0 0 0 0 0 0 0 0 127 0" result="hardAlpha"/>
<feOffset dx="0.588507" dy="0.588507"/>
<feGaussianBlur stdDeviation="0.588507"/>
<feComposite in2="hardAlpha" operator="arithmetic" k2="-1" k3="1"/>
<feColorMatrix type="matrix" values="0 0 0 0 0.8 0 0 0 0 0.807843 0 0 0 0 0.85098 0 0 0 1 0"/>
<feBlend mode="normal" in2="effect1_innerShadow_7206_54534" result="effect2_innerShadow_7206_54534"/>
</filter>
<filter id="filter25_dii_7206_54534" x="24.7922" y="35.58" width="4.29505" height="4.0536" filterUnits="userSpaceOnUse" color-interpolation-filters="sRGB">
<feFlood flood-opacity="0" result="BackgroundImageFix"/>
<feColorMatrix in="SourceAlpha" type="matrix" values="0 0 0 0 0 0 0 0 0 0 0 0 0 0 0 0 0 0 127 0" result="hardAlpha"/>
<feOffset dx="0.117701" dy="0.117701"/>
<feGaussianBlur stdDeviation="0.147127"/>
<feComposite in2="hardAlpha" operator="out"/>
<feColorMatrix type="matrix" values="0 0 0 0 0.789731 0 0 0 0 0.803886 0 0 0 0 0.841634 0 0 0 0.9 0"/>
<feBlend mode="normal" in2="BackgroundImageFix" result="effect1_dropShadow_7206_54534"/>
<feBlend mode="normal" in="SourceGraphic" in2="effect1_dropShadow_7206_54534" result="shape"/>
<feColorMatrix in="SourceAlpha" type="matrix" values="0 0 0 0 0 0 0 0 0 0 0 0 0 0 0 0 0 0 127 0" result="hardAlpha"/>
<feOffset dy="0.117701"/>
<feGaussianBlur stdDeviation="0.147127"/>
<feComposite in2="hardAlpha" operator="arithmetic" k2="-1" k3="1"/>
<feColorMatrix type="matrix" values="0 0 0 0 1 0 0 0 0 1 0 0 0 0 1 0 0 0 0.4 0"/>
<feBlend mode="normal" in2="shape" result="effect2_innerShadow_7206_54534"/>
<feColorMatrix in="SourceAlpha" type="matrix" values="0 0 0 0 0 0 0 0 0 0 0 0 0 0 0 0 0 0 127 0" result="hardAlpha"/>
<feOffset dy="-0.117701"/>
<feGaussianBlur stdDeviation="0.147127"/>
<feComposite in2="hardAlpha" operator="arithmetic" k2="-1" k3="1"/>
<feColorMatrix type="matrix" values="0 0 0 0 0.713726 0 0 0 0 0.72549 0 0 0 0 0.784314 0 0 0 0.7 0"/>
<feBlend mode="normal" in2="effect2_innerShadow_7206_54534" result="effect3_innerShadow_7206_54534"/>
</filter>
<linearGradient id="paint0_linear_7206_54534" x1="20.9094" y1="30.3408" x2="102.566" y2="88.9926" gradientUnits="userSpaceOnUse">
<stop stop-color="#DFE0E6"/>
<stop offset="1" stop-color="#B0AEB1"/>
</linearGradient>
<linearGradient id="paint1_linear_7206_54534" x1="19.9595" y1="30.8444" x2="98.2688" y2="88.365" gradientUnits="userSpaceOnUse">
<stop stop-color="#E1E1E8"/>
<stop offset="1" stop-color="#BABEC5"/>
</linearGradient>
<linearGradient id="paint2_linear_7206_54534" x1="71.8621" y1="48.0362" x2="71.9477" y2="52.1881" gradientUnits="userSpaceOnUse">
<stop stop-color="#51688A"/>
<stop offset="1" stop-color="#404F66"/>
</linearGradient>
<linearGradient id="paint3_linear_7206_54534" x1="39.6549" y1="60.8153" x2="29.0678" y2="61.0335" gradientUnits="userSpaceOnUse">
<stop stop-color="#487298"/>
<stop offset="1" stop-color="#5785AF"/>
</linearGradient>
<linearGradient id="paint4_linear_7206_54534" x1="65.3147" y1="61.9819" x2="66.1788" y2="67.9836" gradientUnits="userSpaceOnUse">
<stop stop-color="#D5DFE9"/>
<stop offset="1" stop-color="#ACBED4"/>
</linearGradient>
<linearGradient id="paint5_linear_7206_54534" x1="65.0908" y1="51.229" x2="69.733" y2="62.0895" gradientUnits="userSpaceOnUse">
<stop stop-color="#5483AA"/>
<stop offset="1" stop-color="#40668A"/>
</linearGradient>
<linearGradient id="paint6_linear_7206_54534" x1="65.0908" y1="51.229" x2="69.733" y2="62.0895" gradientUnits="userSpaceOnUse">
<stop stop-color="#5483AA"/>
<stop offset="1" stop-color="#40668A"/>
</linearGradient>
<linearGradient id="paint7_linear_7206_54534" x1="44.0006" y1="59.0433" x2="44.1461" y2="66.1044" gradientUnits="userSpaceOnUse">
<stop stop-color="#76B0DC" stop-opacity="0.8"/>
<stop offset="1" stop-color="white"/>
</linearGradient>
<linearGradient id="paint8_linear_7206_54534" x1="78.7247" y1="54.0342" x2="79.6407" y2="58.533" gradientUnits="userSpaceOnUse">
<stop stop-color="#373B42"/>
<stop offset="1" stop-color="#272128"/>
</linearGradient>
<linearGradient id="paint9_linear_7206_54534" x1="80.6873" y1="53.6102" x2="81.6034" y2="58.1089" gradientUnits="userSpaceOnUse">
<stop stop-color="#373B42"/>
<stop offset="1" stop-color="#272128"/>
</linearGradient>
<linearGradient id="paint10_linear_7206_54534" x1="85.292" y1="53.9981" x2="85.292" y2="56.3619" gradientUnits="userSpaceOnUse">
<stop stop-color="#D9D9D9"/>
<stop offset="1" stop-color="#98AABE"/>
</linearGradient>
<linearGradient id="paint11_linear_7206_54534" x1="85.6256" y1="54.392" x2="85.1282" y2="55.9679" gradientUnits="userSpaceOnUse">
<stop stop-color="#3A4148"/>
<stop offset="1" stop-color="#21191F"/>
</linearGradient>
<linearGradient id="paint12_linear_7206_54534" x1="85.6256" y1="54.392" x2="85.1282" y2="55.9679" gradientUnits="userSpaceOnUse">
<stop stop-color="#3A4148"/>
<stop offset="1" stop-color="#21191F"/>
</linearGradient>
<linearGradient id="paint13_linear_7206_54534" x1="72.4249" y1="58.8408" x2="72.5246" y2="63.6731" gradientUnits="userSpaceOnUse">
<stop stop-color="#43597C"/>
<stop offset="1" stop-color="#404F66"/>
</linearGradient>
<linearGradient id="paint14_linear_7206_54534" x1="71.5422" y1="51.1714" x2="71.6054" y2="52.128" gradientUnits="userSpaceOnUse">
<stop stop-color="#31699A"/>
<stop offset="1" stop-color="#516A92" stop-opacity="0.5"/>
</linearGradient>
<linearGradient id="paint15_linear_7206_54534" x1="22.4161" y1="34.8307" x2="39.5624" y2="54.3403" gradientUnits="userSpaceOnUse">
<stop stop-color="#DFE0E6"/>
<stop offset="1" stop-color="#9C9EAB"/>
</linearGradient>
<linearGradient id="paint16_linear_7206_54534" x1="23.3102" y1="33.937" x2="38.9597" y2="54.1534" gradientUnits="userSpaceOnUse">
<stop stop-color="#E3E5EA"/>
<stop offset="1" stop-color="#D2D4DA"/>
</linearGradient>
<linearGradient id="paint17_linear_7206_54534" x1="25.9734" y1="36.0055" x2="27.5797" y2="38.9863" gradientUnits="userSpaceOnUse">
<stop stop-color="#CCCFD9"/>
<stop offset="1" stop-color="#E0E2E7"/>
</linearGradient>
</defs>
</svg>
