<svg width="17" height="17" viewBox="0 0 17 17" fill="none" xmlns="http://www.w3.org/2000/svg">
<rect x="0.929688" y="0.5" width="16" height="16" rx="8" fill="#F2F4F7"/>
<path d="M8.92969 4.5C8.26665 4.5 7.63076 4.76339 7.16192 5.23223C6.69308 5.70107 6.42969 6.33696 6.42969 7C6.42969 7.13261 6.48237 7.25979 6.57613 7.35355C6.6699 7.44732 6.79708 7.5 6.92969 7.5C7.0623 7.5 7.18947 7.44732 7.28324 7.35355C7.37701 7.25979 7.42969 7.13261 7.42969 7C7.42969 6.171 8.10069 5.5 8.92969 5.5C9.75869 5.5 10.4297 6.171 10.4297 7C10.4297 7.408 10.3302 7.647 10.2107 7.8145C10.0797 7.997 9.89819 8.1335 9.64669 8.307L9.58869 8.346C9.36519 8.499 9.07719 8.6955 8.85419 8.9695C8.59069 9.2935 8.42969 9.703 8.42969 10.25V10.5C8.42969 10.6326 8.48237 10.7598 8.57613 10.8536C8.6699 10.9473 8.79708 11 8.92969 11C9.0623 11 9.18947 10.9473 9.28324 10.8536C9.37701 10.7598 9.42969 10.6326 9.42969 10.5V10.25C9.42969 9.922 9.51869 9.738 9.62969 9.6005C9.75819 9.4435 9.93119 9.3245 10.1867 9.149L10.2132 9.1305C10.4612 8.9605 10.7797 8.7375 11.0232 8.3965C11.2797 8.0405 11.4297 7.5915 11.4297 7C11.4297 6.33696 11.1663 5.70107 10.6975 5.23223C10.2286 4.76339 9.59273 4.5 8.92969 4.5ZM8.92969 13.125C9.09545 13.125 9.25442 13.0592 9.37163 12.9419C9.48884 12.8247 9.55469 12.6658 9.55469 12.5C9.55469 12.3342 9.48884 12.1753 9.37163 12.0581C9.25442 11.9408 9.09545 11.875 8.92969 11.875C8.76393 11.875 8.60496 11.9408 8.48775 12.0581C8.37054 12.1753 8.30469 12.3342 8.30469 12.5C8.30469 12.6658 8.37054 12.8247 8.48775 12.9419C8.60496 13.0592 8.76393 13.125 8.92969 13.125Z" fill="#A6AEB7"/>
</svg>
